<svg width="12" height="7" viewBox="0 0 12 7" fill="none" xmlns="http://www.w3.org/2000/svg">
<path fill-rule="evenodd" clip-rule="evenodd" d="M0.440239 0.565055C0.480879 0.524312 0.529157 0.491987 0.582309 0.469932C0.635461 0.447876 0.692442 0.436523 0.749989 0.436523C0.807535 0.436523 0.864516 0.447876 0.917668 0.469932C0.97082 0.491987 1.0191 0.524312 1.05974 0.565055L5.99999 5.50618L10.9402 0.565055C10.9809 0.524378 11.0292 0.492112 11.0824 0.470097C11.1355 0.448083 11.1925 0.436752 11.25 0.436752C11.3075 0.436752 11.3645 0.448083 11.4176 0.470097C11.4708 0.492112 11.5191 0.524378 11.5597 0.565055C11.6004 0.605732 11.6327 0.654023 11.6547 0.70717C11.6767 0.760317 11.688 0.817279 11.688 0.874805C11.688 0.932331 11.6767 0.989294 11.6547 1.04244C11.6327 1.09559 11.6004 1.14388 11.5597 1.18456L6.30974 6.43456C6.2691 6.4753 6.22082 6.50762 6.16767 6.52968C6.11452 6.55173 6.05753 6.56309 5.99999 6.56309C5.94244 6.56309 5.88546 6.55173 5.83231 6.52968C5.77916 6.50762 5.73088 6.4753 5.69024 6.43456L0.440239 1.18456C0.399496 1.14392 0.367171 1.09564 0.345115 1.04248C0.32306 0.989333 0.311707 0.932352 0.311707 0.874805C0.311707 0.817259 0.32306 0.760278 0.345115 0.707126C0.367171 0.653974 0.399496 0.605695 0.440239 0.565055Z" fill="#AEAEAE"/>
</svg>