<svg width="13" height="14" viewBox="0 0 13 14" fill="none" xmlns="http://www.w3.org/2000/svg">
<g clip-path="url(#clip0_108_89)">
<path d="M10.5625 0.5H4.875C4.44402 0.5 4.0307 0.671205 3.72595 0.975951C3.4212 1.2807 3.25 1.69402 3.25 2.125C2.81902 2.125 2.4057 2.2962 2.10095 2.60095C1.7962 2.9057 1.625 3.31902 1.625 3.75V11.875C1.625 12.306 1.7962 12.7193 2.10095 13.024C2.4057 13.3288 2.81902 13.5 3.25 13.5H8.9375C9.36848 13.5 9.7818 13.3288 10.0865 13.024C10.3913 12.7193 10.5625 12.306 10.5625 11.875C10.9935 11.875 11.4068 11.7038 11.7115 11.399C12.0163 11.0943 12.1875 10.681 12.1875 10.25V2.125C12.1875 1.69402 12.0163 1.2807 11.7115 0.975951C11.4068 0.671205 10.9935 0.5 10.5625 0.5ZM10.5625 11.0625V3.75C10.5625 3.31902 10.3913 2.9057 10.0865 2.60095C9.7818 2.2962 9.36848 2.125 8.9375 2.125H4.0625C4.0625 1.90951 4.1481 1.70285 4.30048 1.55048C4.45285 1.3981 4.65951 1.3125 4.875 1.3125H10.5625C10.778 1.3125 10.9847 1.3981 11.137 1.55048C11.2894 1.70285 11.375 1.90951 11.375 2.125V10.25C11.375 10.4655 11.2894 10.6722 11.137 10.8245C10.9847 10.9769 10.778 11.0625 10.5625 11.0625ZM2.4375 3.75C2.4375 3.53451 2.5231 3.32785 2.67548 3.17548C2.82785 3.0231 3.03451 2.9375 3.25 2.9375H8.9375C9.15299 2.9375 9.35965 3.0231 9.51202 3.17548C9.6644 3.32785 9.75 3.53451 9.75 3.75V11.875C9.75 12.0905 9.6644 12.2972 9.51202 12.4495C9.35965 12.6019 9.15299 12.6875 8.9375 12.6875H3.25C3.03451 12.6875 2.82785 12.6019 2.67548 12.4495C2.5231 12.2972 2.4375 12.0905 2.4375 11.875V3.75Z" fill="#AEAEAE"/>
</g>
<defs>
<clipPath id="clip0_108_89">
<rect width="13" height="13" fill="white" transform="translate(0 0.5)"/>
</clipPath>
</defs>
</svg>