<svg width="15" height="14" viewBox="0 0 15 14" fill="none" xmlns="http://www.w3.org/2000/svg">
<g clip-path="url(#clip0_98_1599)">
<path d="M14.5043 11.1998C14.5043 12.7513 13.0727 13.9505 11.2715 13.9505H3.7703C1.96936 13.9505 0.509216 12.7513 0.509216 11.1998V2.84216C0.509216 1.29066 1.96936 0.032959 3.7703 0.032959H11.2715C13.0727 0.032959 14.5043 1.29066 14.5043 2.84216V11.1998Z" fill="#F9E000"/>
<path d="M2.93195 4.62336C2.93195 4.44261 3.05321 4.2198 3.20899 4.12844L7.18749 1.79313C7.34326 1.70177 7.59697 1.70177 7.75274 1.79313L11.7266 4.12844C11.8824 4.2198 12.0024 4.44261 12.0024 4.62336V9.30186C12.0024 9.48261 11.8818 9.70543 11.726 9.79679L7.74781 12.1321C7.59204 12.2235 7.33866 12.2235 7.18256 12.1321L3.20833 9.79679C3.05256 9.70543 2.93195 9.48261 2.93195 9.30186V4.62336Z" fill="#1977D1"/>
<path d="M8.05867 6.75361V7.73033C8.05867 7.73033 8.08398 7.90516 8.29792 7.73526L10.4051 6.3793C10.4051 6.3793 10.4821 6.35005 10.4821 6.18507C10.4821 6.18507 10.4863 6.09108 10.4121 6.01648C10.3375 5.94188 8.26111 4.63653 8.26111 4.63653C8.26111 4.63653 8.15759 4.60728 8.15759 4.75977V5.80056H6.10754C6.10754 5.80056 5.62708 5.77361 5.62708 6.22089V8.35244L6.23407 8.81253C6.23407 8.81253 6.48154 8.99723 6.48154 8.77704V6.91761C6.48154 6.91761 6.5029 6.75394 6.77172 6.75394H8.15759" fill="#F7E200"/>
</g>
<defs>
<clipPath id="clip0_98_1599">
<rect width="14" height="13.9014" fill="white" transform="translate(0.5 0.0493164)"/>
</clipPath>
</defs>
</svg>
