<svg width="13" height="14" viewBox="0 0 13 14" fill="none" xmlns="http://www.w3.org/2000/svg">
<path d="M9.73889 0.783691H2.69379C1.20605 0.783691 0 1.98974 0 3.47748V10.5226C0 12.0103 1.20605 13.2164 2.69379 13.2164H9.73889C11.2266 13.2164 12.4327 12.0103 12.4327 10.5226V3.47748C12.4327 1.98974 11.2266 0.783691 9.73889 0.783691Z" fill="url(#paint0_linear_98_1222)"/>
<mask id="mask0_98_1222" style="mask-type:luminance" maskUnits="userSpaceOnUse" x="0" y="0" width="13" height="14">
<path d="M9.73889 0.783691H2.69379C1.20605 0.783691 0 1.98974 0 3.47748V10.5226C0 12.0103 1.20605 13.2164 2.69379 13.2164H9.73889C11.2266 13.2164 12.4327 12.0103 12.4327 10.5226V3.47748C12.4327 1.98974 11.2266 0.783691 9.73889 0.783691Z" fill="white"/>
</mask>
<g mask="url(#mask0_98_1222)">
<g style="mix-blend-mode:multiply" opacity="0.8">
<path opacity="0.93" d="M6.14034 13.2165L4.61709 10.9824H4.51996L6.04308 13.2165H6.14034Z" fill="url(#paint1_linear_98_1222)"/>
<path opacity="0.92" d="M6.21816 13.2165L4.69491 10.9824H4.59778L6.1209 13.2165H6.21816Z" fill="url(#paint2_linear_98_1222)"/>
<path opacity="0.91" d="M6.29597 13.2165L4.77273 10.9824H4.6756L6.19872 13.2165H6.29597Z" fill="url(#paint3_linear_98_1222)"/>
<path opacity="0.9" d="M6.37382 13.2165L4.85058 10.9824H4.75345L6.27657 13.2165H6.37382Z" fill="url(#paint4_linear_98_1222)"/>
<path opacity="0.9" d="M6.45152 13.2165L4.9284 10.9824H4.83127L6.35439 13.2165H6.45152Z" fill="url(#paint5_linear_98_1222)"/>
<path opacity="0.89" d="M6.52934 13.2165L5.00622 10.9824H4.90909L6.43221 13.2165H6.52934Z" fill="url(#paint6_linear_98_1222)"/>
<path opacity="0.88" d="M6.60716 13.2165L5.08404 10.9824H4.98691L6.51003 13.2165H6.60716Z" fill="url(#paint7_linear_98_1222)"/>
<path opacity="0.87" d="M6.68498 13.2165L5.16186 10.9824H5.06473L6.58785 13.2165H6.68498Z" fill="url(#paint8_linear_98_1222)"/>
<path opacity="0.87" d="M6.76283 13.2165L5.23971 10.9824H5.14258L6.6657 13.2165H6.76283Z" fill="url(#paint9_linear_98_1222)"/>
<path opacity="0.86" d="M6.84065 13.2165L5.31753 10.9824H5.2204L6.74352 13.2165H6.84065Z" fill="url(#paint10_linear_98_1222)"/>
<path opacity="0.85" d="M6.91847 13.2165L5.39535 10.9824H5.29822L6.82134 13.2165H6.91847Z" fill="url(#paint11_linear_98_1222)"/>
<path opacity="0.84" d="M6.99629 13.2165L5.47317 10.9824H5.37604L6.89916 13.2165H6.99629Z" fill="url(#paint12_linear_98_1222)"/>
<path opacity="0.84" d="M7.07411 13.2165L5.55099 10.9824H5.45374L6.97698 13.2165H7.07411Z" fill="url(#paint13_linear_98_1222)"/>
<path opacity="0.83" d="M7.15196 13.2165L5.62884 10.9824H5.53159L7.05483 13.2165H7.15196Z" fill="url(#paint14_linear_98_1222)"/>
<path opacity="0.82" d="M7.22978 13.2165L5.70666 10.9824H5.60941L7.13265 13.2165H7.22978Z" fill="url(#paint15_linear_98_1222)"/>
<path opacity="0.81" d="M7.3076 13.2165L5.78448 10.9824H5.68723L7.21047 13.2165H7.3076Z" fill="url(#paint16_linear_98_1222)"/>
<path opacity="0.81" d="M7.38542 13.2165L5.8623 10.9824H5.76505L7.28817 13.2165H7.38542Z" fill="url(#paint17_linear_98_1222)"/>
<path opacity="0.8" d="M7.46324 13.2165L5.94012 10.9824H5.84286L7.36599 13.2165H7.46324Z" fill="url(#paint18_linear_98_1222)"/>
<path opacity="0.79" d="M7.54106 13.2165L6.01782 10.9824H5.92068L7.44381 13.2165H7.54106Z" fill="url(#paint19_linear_98_1222)"/>
<path opacity="0.79" d="M7.61891 13.2165L6.09567 10.9824H5.99854L7.52166 13.2165H7.61891Z" fill="url(#paint20_linear_98_1222)"/>
<path opacity="0.78" d="M7.69673 13.2165L6.17349 10.9824H6.07635L7.59948 13.2165H7.69673Z" fill="url(#paint21_linear_98_1222)"/>
<path opacity="0.77" d="M7.77455 13.2165L6.25131 10.9824H6.15417L7.6773 13.2165H7.77455Z" fill="url(#paint22_linear_98_1222)"/>
<path opacity="0.76" d="M7.85225 13.2165L6.32912 10.9824H6.23199L7.75512 13.2165H7.85225Z" fill="url(#paint23_linear_98_1222)"/>
<path opacity="0.76" d="M7.93007 13.2165L6.40694 10.9824H6.30981L7.83294 13.2165H7.93007Z" fill="url(#paint24_linear_98_1222)"/>
<path opacity="0.75" d="M8.00792 13.2165L6.4848 10.9824H6.38766L7.91079 13.2165H8.00792Z" fill="url(#paint25_linear_98_1222)"/>
<path opacity="0.74" d="M8.08574 13.2165L6.56261 10.9824H6.46548L7.98861 13.2165H8.08574Z" fill="url(#paint26_linear_98_1222)"/>
<path opacity="0.73" d="M8.16356 13.2165L6.64043 10.9824H6.5433L8.06643 13.2165H8.16356Z" fill="url(#paint27_linear_98_1222)"/>
<path opacity="0.73" d="M8.24138 13.2165L6.71825 10.9824H6.62112L8.14425 13.2165H8.24138Z" fill="url(#paint28_linear_98_1222)"/>
<path opacity="0.72" d="M8.3192 13.2165L6.79607 10.9824H6.69894L8.22207 13.2165H8.3192Z" fill="url(#paint29_linear_98_1222)"/>
<path opacity="0.71" d="M8.39705 13.2165L6.87392 10.9824H6.77679L8.29992 13.2165H8.39705Z" fill="url(#paint30_linear_98_1222)"/>
<path opacity="0.7" d="M8.47487 13.2165L6.95174 10.9824H6.85449L8.37774 13.2165H8.47487Z" fill="url(#paint31_linear_98_1222)"/>
<path opacity="0.7" d="M8.55269 13.2165L7.02956 10.9824H6.93231L8.45556 13.2165H8.55269Z" fill="url(#paint32_linear_98_1222)"/>
<path opacity="0.69" d="M8.63051 13.2165L7.10738 10.9824H7.01013L8.53338 13.2165H8.63051Z" fill="url(#paint33_linear_98_1222)"/>
<path opacity="0.68" d="M8.70833 13.2165L7.1852 10.9824H7.08795L8.6112 13.2165H8.70833Z" fill="url(#paint34_linear_98_1222)"/>
<path opacity="0.67" d="M8.78618 13.2165L7.26305 10.9824H7.1658L8.68893 13.2165H8.78618Z" fill="url(#paint35_linear_98_1222)"/>
<path opacity="0.67" d="M8.864 13.2165L7.34087 10.9824H7.24362L8.76675 13.2165H8.864Z" fill="url(#paint36_linear_98_1222)"/>
<path opacity="0.66" d="M8.94182 13.2165L7.41857 10.9824H7.32144L8.84457 13.2165H8.94182Z" fill="url(#paint37_linear_98_1222)"/>
<path opacity="0.65" d="M9.01964 13.2165L7.49639 10.9824H7.39926L8.92239 13.2165H9.01964Z" fill="url(#paint38_linear_98_1222)"/>
<path opacity="0.64" d="M9.09746 13.2165L7.57421 10.9824H7.47708L9.00021 13.2165H9.09746Z" fill="url(#paint39_linear_98_1222)"/>
<path opacity="0.64" d="M9.17519 13.2165L7.65206 10.9824H7.55493L9.07806 13.2165H9.17519Z" fill="url(#paint40_linear_98_1222)"/>
<path opacity="0.63" d="M9.25301 13.2165L7.72988 10.9824H7.63275L9.15588 13.2165H9.25301Z" fill="url(#paint41_linear_98_1222)"/>
<path opacity="0.62" d="M9.33083 13.2165L7.8077 10.9824H7.71057L9.2337 13.2165H9.33083Z" fill="url(#paint42_linear_98_1222)"/>
<path opacity="0.62" d="M9.40865 13.2165L7.88552 10.9824H7.78839L9.31152 13.2165H9.40865Z" fill="url(#paint43_linear_98_1222)"/>
<path opacity="0.61" d="M9.48647 13.2165L7.96334 10.9824H7.86621L9.38934 13.2165H9.48647Z" fill="url(#paint44_linear_98_1222)"/>
<path opacity="0.6" d="M9.56429 13.2165L8.04116 10.9824H7.94403L9.46716 13.2165H9.56429Z" fill="url(#paint45_linear_98_1222)"/>
<path opacity="0.59" d="M9.64214 13.2165L8.11901 10.9824H8.02188L9.54501 13.2165H9.64214Z" fill="url(#paint46_linear_98_1222)"/>
<path opacity="0.59" d="M9.71996 13.2165L8.19683 10.9824H8.0997L9.62283 13.2165H9.71996Z" fill="url(#paint47_linear_98_1222)"/>
<path opacity="0.58" d="M9.79778 13.2165L8.27465 10.9824H8.17752L9.70064 13.2165H9.79778Z" fill="url(#paint48_linear_98_1222)"/>
<path opacity="0.57" d="M9.8756 13.2165L8.35247 10.9824H8.25522L9.77847 13.2165H9.8756Z" fill="url(#paint49_linear_98_1222)"/>
<path opacity="0.56" d="M9.95341 13.2165L8.43029 10.9824H8.33304L9.85628 13.2165H9.95341Z" fill="url(#paint50_linear_98_1222)"/>
<path opacity="0.56" d="M10.0313 13.2165L8.50814 10.9824H8.41089L9.93414 13.2165H10.0313Z" fill="url(#paint51_linear_98_1222)"/>
<path opacity="0.55" d="M10.1091 13.2165L8.58596 10.9824H8.48871L10.0118 13.2165H10.1091Z" fill="url(#paint52_linear_98_1222)"/>
<path opacity="0.54" d="M10.1869 13.2165L8.66378 10.9824H8.56653L10.0897 13.2165H10.1869Z" fill="url(#paint53_linear_98_1222)"/>
<path opacity="0.53" d="M10.2647 13.2165L8.74148 10.9824H8.64435L10.1675 13.2165H10.2647Z" fill="url(#paint54_linear_98_1222)"/>
<path opacity="0.53" d="M10.3425 13.2165L8.8193 10.9824H8.72217L10.2453 13.2165H10.3425Z" fill="url(#paint55_linear_98_1222)"/>
<path opacity="0.52" d="M10.4204 13.2165L8.89715 10.9824H8.80002L10.3231 13.2165H10.4204Z" fill="url(#paint56_linear_98_1222)"/>
<path opacity="0.51" d="M10.4982 13.2165L8.97497 10.9824H8.87784L10.401 13.2165H10.4982Z" fill="url(#paint57_linear_98_1222)"/>
<path opacity="0.5" d="M10.5759 13.2165L9.05279 10.9824H8.95566L10.4788 13.2165H10.5759Z" fill="url(#paint58_linear_98_1222)"/>
<path opacity="0.5" d="M10.6537 13.2165L9.13061 10.9824H9.03348L10.5566 13.2165H10.6537Z" fill="url(#paint59_linear_98_1222)"/>
<path opacity="0.49" d="M10.7316 13.2165L9.20843 10.9824H9.1113L10.6344 13.2165H10.7316Z" fill="url(#paint60_linear_98_1222)"/>
<path opacity="0.48" d="M10.8094 13.2165L9.28628 10.9824H9.18915L10.7123 13.2165H10.8094Z" fill="url(#paint61_linear_98_1222)"/>
<path opacity="0.48" d="M10.8872 13.2165L9.3641 10.9824H9.26697L10.7901 13.2165H10.8872Z" fill="url(#paint62_linear_98_1222)"/>
<path opacity="0.47" d="M10.965 13.2165L9.44192 10.9824H9.34479L10.8679 13.2165H10.965Z" fill="url(#paint63_linear_98_1222)"/>
<path opacity="0.46" d="M11.0429 13.2165L9.51974 10.9824H9.42261L10.9457 13.2165H11.0429Z" fill="url(#paint64_linear_98_1222)"/>
<path opacity="0.45" d="M11.1207 13.2165L9.59756 10.9824H9.50043L11.0236 13.2165H11.1207Z" fill="url(#paint65_linear_98_1222)"/>
<path opacity="0.45" d="M11.1985 13.2165L9.67541 10.9824H9.57816L11.1014 13.2165H11.1985Z" fill="url(#paint66_linear_98_1222)"/>
<path opacity="0.44" d="M11.2764 13.2165L9.75323 10.9824H9.65598L11.1792 13.2165H11.2764Z" fill="url(#paint67_linear_98_1222)"/>
<path opacity="0.43" d="M11.3542 13.2165L9.83105 10.9824H9.7338L11.257 13.2165H11.3542Z" fill="url(#paint68_linear_98_1222)"/>
<path opacity="0.42" d="M11.432 13.2165L9.90887 10.9824H9.81161L11.3349 13.2165H11.432Z" fill="url(#paint69_linear_98_1222)"/>
<path opacity="0.42" d="M11.5098 13.2165L9.98669 10.9824H9.88943L11.4126 13.2165H11.5098Z" fill="url(#paint70_linear_98_1222)"/>
<path opacity="0.41" d="M11.5876 13.2165L10.0645 10.9824H9.96725L11.4904 13.2165H11.5876Z" fill="url(#paint71_linear_98_1222)"/>
<path opacity="0.4" d="M11.6655 13.2165L10.1422 10.9824H10.0451L11.5682 13.2165H11.6655Z" fill="url(#paint72_linear_98_1222)"/>
<path opacity="0.39" d="M11.7433 13.2165L10.2201 10.9824H10.1229L11.646 13.2165H11.7433Z" fill="url(#paint73_linear_98_1222)"/>
<path opacity="0.39" d="M11.8211 13.2165L10.2979 10.9824H10.2007L11.7239 13.2165H11.8211Z" fill="url(#paint74_linear_98_1222)"/>
<path opacity="0.38" d="M11.8988 13.2165L10.3757 10.9824H10.2786L11.8017 13.2165H11.8988Z" fill="url(#paint75_linear_98_1222)"/>
<path opacity="0.37" d="M11.9766 13.2165L10.4535 10.9824H10.3564L11.8795 13.2165H11.9766Z" fill="url(#paint76_linear_98_1222)"/>
<path opacity="0.36" d="M12.0545 13.2165L10.5314 10.9824H10.4342L11.9574 13.2165H12.0545Z" fill="url(#paint77_linear_98_1222)"/>
<path opacity="0.36" d="M12.1323 13.2165L10.6092 10.9824H10.5121L12.0352 13.2165H12.1323Z" fill="url(#paint78_linear_98_1222)"/>
<path opacity="0.35" d="M12.2101 13.2165L10.687 10.9824H10.5899L12.113 13.2165H12.2101Z" fill="url(#paint79_linear_98_1222)"/>
<path opacity="0.34" d="M12.2879 13.2165L10.7648 10.9824H10.6677L12.1908 13.2165H12.2879Z" fill="url(#paint80_linear_98_1222)"/>
<path opacity="0.33" d="M12.3658 13.2165L10.8426 10.9824H10.7455L12.2686 13.2165H12.3658Z" fill="url(#paint81_linear_98_1222)"/>
<path opacity="0.33" d="M12.4436 13.2165L10.9205 10.9824H10.8234L12.3465 13.2165H12.4436Z" fill="url(#paint82_linear_98_1222)"/>
<path opacity="0.32" d="M12.5214 13.2165L10.9983 10.9824H10.9012L12.4243 13.2165H12.5214Z" fill="url(#paint83_linear_98_1222)"/>
<path opacity="0.31" d="M12.5993 13.2165L11.0761 10.9824H10.9789L12.5021 13.2165H12.5993Z" fill="url(#paint84_linear_98_1222)"/>
<path opacity="0.31" d="M12.6771 13.2165L11.154 10.9824H11.0567L12.5799 13.2165H12.6771Z" fill="url(#paint85_linear_98_1222)"/>
<path opacity="0.3" d="M12.7549 13.2165L11.2318 10.9824H11.1345L12.6578 13.2165H12.7549Z" fill="url(#paint86_linear_98_1222)"/>
<path opacity="0.29" d="M12.8327 13.2165L11.3096 10.9824H11.2124L12.7356 13.2165H12.8327Z" fill="url(#paint87_linear_98_1222)"/>
<path opacity="0.28" d="M12.9106 13.2165L11.3874 10.9824H11.2902L12.8133 13.2165H12.9106Z" fill="url(#paint88_linear_98_1222)"/>
<path opacity="0.28" d="M12.9884 13.2165L11.4653 10.9824H11.368L12.8911 13.2165H12.9884Z" fill="url(#paint89_linear_98_1222)"/>
<path opacity="0.27" d="M13.0662 13.2165L11.543 10.9824H11.4458L12.969 13.2165H13.0662Z" fill="url(#paint90_linear_98_1222)"/>
<path opacity="0.26" d="M13.144 13.2165L11.6208 10.9824H11.5237L13.0468 13.2165H13.144Z" fill="url(#paint91_linear_98_1222)"/>
<path opacity="0.25" d="M13.2219 13.2165L11.6986 10.9824H11.6015L13.1246 13.2165H13.2219Z" fill="url(#paint92_linear_98_1222)"/>
<path opacity="0.25" d="M13.2996 13.2165L11.7765 10.9824H11.6793L13.2024 13.2165H13.2996Z" fill="url(#paint93_linear_98_1222)"/>
<path opacity="0.24" d="M13.3774 13.2165L11.8543 10.9824H11.7571L13.2803 13.2165H13.3774Z" fill="url(#paint94_linear_98_1222)"/>
<path opacity="0.23" d="M13.4552 13.2165L11.9321 10.9824H11.835L13.3581 13.2165H13.4552Z" fill="url(#paint95_linear_98_1222)"/>
<path opacity="0.22" d="M13.533 13.2165L12.0099 10.9824H11.9128L13.4359 13.2165H13.533Z" fill="url(#paint96_linear_98_1222)"/>
<path opacity="0.22" d="M13.6109 13.2165L12.0878 10.9824H11.9906L13.5138 13.2165H13.6109Z" fill="url(#paint97_linear_98_1222)"/>
<path opacity="0.21" d="M13.6887 13.2165L12.1656 10.9824H12.0685L13.5916 13.2165H13.6887Z" fill="url(#paint98_linear_98_1222)"/>
<path opacity="0.2" d="M13.7665 13.2165L12.2434 10.9824H12.1463L13.6694 13.2165H13.7665Z" fill="url(#paint99_linear_98_1222)"/>
<path opacity="0.19" d="M13.8443 13.2165L12.3212 10.9824H12.2241L13.7472 13.2165H13.8443Z" fill="url(#paint100_linear_98_1222)"/>
<path opacity="0.19" d="M13.9222 13.2165L12.399 10.9824H12.3019L13.825 13.2165H13.9222Z" fill="url(#paint101_linear_98_1222)"/>
<path opacity="0.18" d="M14 13.2165L12.4769 10.9824H12.3796L13.9029 13.2165H14Z" fill="url(#paint102_linear_98_1222)"/>
</g>
<path d="M4.60507 8.98218H12.4791V11.0498H4.61466L4.60507 8.98218Z" fill="url(#paint103_linear_98_1222)"/>
</g>
<path d="M4.61466 2.10059C2.81896 2.10059 1.3631 3.55633 1.3631 5.35214C1.3631 5.97232 1.53004 6.54976 1.83127 7.04282L4.53877 11.01C4.5752 11.0634 4.65387 11.0634 4.6903 11.01L7.39781 7.04282C7.69903 6.54976 7.86597 5.97232 7.86597 5.35214C7.86597 3.55633 6.41023 2.10059 4.61441 2.10059H4.61466Z" fill="url(#paint104_linear_98_1222)"/>
<path style="mix-blend-mode:lighten" opacity="0.45" d="M4.61466 2.10059C2.81896 2.10059 1.3631 3.55633 1.3631 5.35214C1.3631 5.97232 1.53004 6.54976 1.83127 7.04282L4.53877 11.01C4.5752 11.0634 4.65387 11.0634 4.6903 11.01L7.39781 7.04282C7.69903 6.54976 7.86597 5.97232 7.86597 5.35214C7.86597 3.55633 6.41023 2.10059 4.61441 2.10059H4.61466Z" fill="url(#paint105_radial_98_1222)"/>
<g style="mix-blend-mode:multiply" opacity="0.07">
<path d="M4.95438 6.58822L4.38617 5.77184V6.58822H3.3436V4.05688H4.27483L4.84305 4.87326V4.05688H5.88574V6.58822H4.95438Z" fill="white"/>
<path d="M4.84387 4.87533V4.05762H5.88511V6.58762H4.95484L4.38566 5.76978V6.58762H3.3443V4.05762H4.27456L4.84387 4.87533Z" fill="#FEFFFE"/>
<path d="M4.84457 4.87752V4.05835H5.8846V6.58702H4.9553L4.38502 5.76784V6.58702H3.34512V4.05835H4.2743L4.84457 4.87752Z" fill="#FDFFFD"/>
<path d="M4.8454 4.87971V4.05908H5.88408V6.58653H4.95576L4.38451 5.7659V6.58653H3.34583V4.05908H4.27415L4.8454 4.87971Z" fill="#FCFEFC"/>
<path d="M4.84607 4.88202V4.06006H5.88342V6.58618H4.95619L4.38397 5.76409V6.58618H3.3465V4.06006H4.27385L4.84607 4.88202Z" fill="#FBFEFC"/>
<path d="M4.84656 4.88373V4.0603H5.88269V6.58508H4.95631L4.38312 5.76166V6.58508H3.34711V4.0603H4.27337L4.84656 4.88373Z" fill="#FAFEFB"/>
<path d="M4.84704 4.88579V4.06079H5.88185V6.58436H4.95644L4.38228 5.75948V6.58436H3.34747V4.06079H4.27276L4.84704 4.88579Z" fill="#F9FEFA"/>
<path d="M4.84765 4.88786V4.06152H5.88112V6.58375H4.9568L4.38167 5.75742V6.58375H3.34808V4.06152H4.2724L4.84765 4.88786Z" fill="#F8FEF9"/>
<path d="M4.84827 4.8898V4.06201H5.88052V6.58291H4.95717L4.38095 5.75524V6.58291H3.34882V4.06201H4.27216L4.84827 4.8898Z" fill="#F7FEF8"/>
<path d="M4.849 4.89199V4.06274H5.87991V6.58243H4.95754L4.38034 5.7533V6.58243H3.34943V4.06274H4.2718L4.849 4.89199Z" fill="#F6FDF7"/>
<path d="M4.84961 4.89406V4.06348H5.87919V6.58182H4.95779L4.37974 5.75124V6.58182H3.35004V4.06348H4.27144L4.84961 4.89406Z" fill="#F5FDF6"/>
<path d="M4.85022 4.89601V4.06396H5.87859V6.58098H4.95815L4.37901 5.74905V6.58098H3.35077V4.06396H4.27108L4.85022 4.89601Z" fill="#F4FDF6"/>
<path d="M4.85095 4.8982V4.0647H5.87798V6.58049H4.95852L4.37841 5.74712V6.58049H3.35138V4.0647H4.27084L4.85095 4.8982Z" fill="#F3FDF5"/>
<path d="M4.85156 4.90026V4.06543H5.87726V6.57989H4.95889L4.37781 5.74506V6.57989H3.35199V4.06543H4.27048L4.85156 4.90026Z" fill="#F2FDF4"/>
<path d="M4.85214 4.90221V4.06592H5.87662V6.57904H4.95911L4.37705 5.74287V6.57904H3.35269V4.06592H4.27009L4.85214 4.90221Z" fill="#F1FCF3"/>
<path d="M4.85287 4.9044V4.06665H5.87602V6.57856H4.95947L4.37645 5.74093V6.57856H3.3533V4.06665H4.26973L4.85287 4.9044Z" fill="#F0FCF2"/>
<path d="M4.85348 4.90647V4.06738H5.87529V6.57796H4.95984L4.37584 5.73887V6.57796H3.35391V4.06738H4.26937L4.85348 4.90647Z" fill="#EFFCF1"/>
<path d="M4.85409 4.90841V4.06787H5.87469V6.57711H4.96021L4.37512 5.73669V6.57711H3.35464V4.06787H4.26913L4.85409 4.90841Z" fill="#EEFCF1"/>
<path d="M4.85483 4.9106V4.0686H5.87409V6.57663H4.96058L4.37452 5.73475V6.57663H3.35526V4.0686H4.26877L4.85483 4.9106Z" fill="#EDFCF0"/>
<path d="M4.85544 4.91267V4.06934H5.87336V6.57603H4.96082L4.37391 5.73269V6.57603H3.35587V4.06934H4.2684L4.85544 4.91267Z" fill="#ECFCEF"/>
<path d="M4.85605 4.91461V4.06982H5.87276V6.57518H4.96119L4.37319 5.73051V6.57518H3.3566V4.06982H4.26804L4.85605 4.91461Z" fill="#EBFBEE"/>
<path d="M4.85678 4.9168V4.07056H5.87215V6.5747H4.96156L4.37258 5.72857V6.5747H3.35721V4.07056H4.26768L4.85678 4.9168Z" fill="#EAFBED"/>
<path d="M4.85736 4.91887V4.07129H5.8714V6.57409H4.9619L4.37195 5.72651V6.57409H3.35779V4.07129H4.26741L4.85736 4.91887Z" fill="#E9FBEC"/>
<path d="M4.85797 4.92082V4.07178H5.8708V6.57325H4.96226L4.37123 5.72433V6.57325H3.35852V4.07178H4.26705L4.85797 4.92082Z" fill="#E8FBEB"/>
<path d="M4.8587 4.92301V4.07251H5.87019V6.57277H4.96251L4.37062 5.72239V6.57277H3.35913V4.07251H4.26669L4.8587 4.92301Z" fill="#E7FBEB"/>
<path d="M4.85931 4.92508V4.07324H5.86947V6.57216H4.96288L4.3699 5.72033V6.57216H3.35974V4.07324H4.26633L4.85931 4.92508Z" fill="#E6FAEA"/>
<path d="M4.85992 4.92702V4.07373H5.86886V6.57132H4.96325L4.36929 5.71815V6.57132H3.36047V4.07373H4.26609L4.85992 4.92702Z" fill="#E5FAE9"/>
<path d="M4.86065 4.92921V4.07446H5.86826V6.57083H4.96361L4.36869 5.71621V6.57083H3.36108V4.07446H4.26573L4.86065 4.92921Z" fill="#E4FAE8"/>
<path d="M4.86127 4.93128V4.0752H5.86753V6.57023H4.96398L4.36796 5.71415V6.57023H3.36169V4.0752H4.26537L4.86127 4.93128Z" fill="#E3FAE7"/>
<path d="M4.86188 4.93322V4.07568H5.86693V6.56938H4.96423L4.36736 5.71197V6.56938H3.36243V4.07568H4.26501L4.86188 4.93322Z" fill="#E2FAE6"/>
<path d="M4.86261 4.93541V4.07642H5.86633V6.5689H4.96459L4.36676 5.71003V6.5689H3.36304V4.07642H4.26465L4.86261 4.93541Z" fill="#E1FAE5"/>
<path d="M4.86319 4.93748V4.07715H5.86557V6.5683H4.96493L4.366 5.70797V6.5683H3.36362V4.07715H4.26438L4.86319 4.93748Z" fill="#E0F9E5"/>
<path d="M4.8638 4.93943V4.07764H5.86497V6.56745H4.9653L4.3654 5.70578V6.56745H3.36435V4.07764H4.26402L4.8638 4.93943Z" fill="#DFF9E4"/>
<path d="M4.86453 4.94161V4.07837H5.86437V6.56697H4.96555L4.3648 5.70372V6.56697H3.36496V4.07837H4.26366L4.86453 4.94161Z" fill="#DEF9E3"/>
<path d="M4.86514 4.94368V4.0791H5.86364V6.56637H4.96591L4.36407 5.70166V6.56637H3.36557V4.0791H4.2633L4.86514 4.94368Z" fill="#DDF9E2"/>
<path d="M4.86575 4.94563V4.07959H5.86304V6.56552H4.96628L4.36347 5.69948V6.56552H3.3663V4.07959H4.26294L4.86575 4.94563Z" fill="#DCF9E1"/>
<path d="M4.86648 4.94757V4.08008H5.86243V6.56479H4.96665L4.36286 5.6973V6.56479H3.36691V4.08008H4.2627L4.86648 4.94757Z" fill="#DBF9E0"/>
<path d="M4.86709 4.94964V4.08081H5.86171V6.56419H4.96702L4.36214 5.69524V6.56419H3.36752V4.08081H4.26234L4.86709 4.94964Z" fill="#DAF8E0"/>
<path d="M4.8677 4.95183V4.08154H5.8611V6.56359H4.96726L4.36153 5.6933V6.56359H3.36826V4.08154H4.26198L4.8677 4.95183Z" fill="#D9F8DF"/>
<path d="M4.86844 4.95378V4.08203H5.8605V6.56286H4.96763L4.36093 5.69112V6.56286H3.36887V4.08203H4.26162L4.86844 4.95378Z" fill="#D8F8DE"/>
<path d="M4.86902 4.95584V4.08276H5.85975V6.56226H4.96797L4.36018 5.68906V6.56226H3.36945V4.08276H4.26122L4.86902 4.95584Z" fill="#D7F8DD"/>
<path d="M4.86963 4.95803V4.0835H5.85914V6.56165H4.96834L4.35957 5.68712V6.56165H3.37018V4.0835H4.26098L4.86963 4.95803Z" fill="#D6F8DC"/>
<path d="M4.87036 4.95998V4.08398H5.85854V6.56093H4.9687L4.35897 5.68494V6.56093H3.37079V4.08398H4.26062L4.87036 4.95998Z" fill="#D5F7DB"/>
<path d="M4.87097 4.96205V4.08472H5.85781V6.56033H4.96895L4.35824 5.68287V6.56033H3.3714V4.08472H4.26026L4.87097 4.96205Z" fill="#D4F7DA"/>
<path d="M4.87158 4.96424V4.08545H5.85721V6.55972H4.96932L4.35764 5.68094V6.55972H3.37213V4.08545H4.2599L4.87158 4.96424Z" fill="#D3F7DA"/>
<path d="M4.87231 4.96618V4.08594H5.85661V6.559H4.96969L4.35704 5.67875V6.559H3.37274V4.08594H4.25966L4.87231 4.96618Z" fill="#D2F7D9"/>
<path d="M4.87292 4.96825V4.08667H5.85588V6.55839H4.97005L4.35631 5.67669V6.55839H3.37335V4.08667H4.2593L4.87292 4.96825Z" fill="#D1F7D8"/>
<path d="M4.87353 4.97044V4.0874H5.85528V6.55779H4.9703L4.35571 5.67475V6.55779H3.37408V4.0874H4.25894L4.87353 4.97044Z" fill="#D0F7D7"/>
<path d="M4.87423 4.97238V4.08789H5.85464V6.55706H4.97064L4.35507 5.67257V6.55706H3.37466V4.08789H4.25855L4.87423 4.97238Z" fill="#CFF6D6"/>
<path d="M4.87485 4.97445V4.08862H5.85392V6.55634H4.971L4.35435 5.67051V6.55634H3.37527V4.08862H4.25819L4.87485 4.97445Z" fill="#CEF6D5"/>
<path d="M4.87546 4.97664V4.08936H5.85332V6.55586H4.97137L4.35375 5.66857V6.55586H3.37601V4.08936H4.25795L4.87546 4.97664Z" fill="#CDF6D4"/>
<path d="M4.87619 4.97871V4.09009H5.85259V6.55526H4.97174L4.35314 5.66651V6.55526H3.37662V4.09009H4.25759L4.87619 4.97871Z" fill="#CCF6D4"/>
<path d="M4.8768 4.98065V4.09058H5.85199V6.55441H4.97199L4.35242 5.66433V6.55441H3.37735V4.09058H4.25723L4.8768 4.98065Z" fill="#CBF6D3"/>
<path d="M4.87741 4.98284V4.09131H5.85138V6.55393H4.97235L4.35181 5.66239V6.55393H3.37796V4.09131H4.25687L4.87741 4.98284Z" fill="#CAF5D2"/>
<path d="M4.87814 4.98491V4.09204H5.85066V6.55332H4.97272L4.35121 5.66033V6.55332H3.37857V4.09204H4.25651L4.87814 4.98491Z" fill="#C9F5D1"/>
<path d="M4.87875 4.98686V4.09253H5.85006V6.55248H4.97309L4.35049 5.65815V6.55248H3.3793V4.09253H4.25627L4.87875 4.98686Z" fill="#C8F5D0"/>
<path d="M4.87936 4.98905V4.09326H5.84945V6.55199H4.97346L4.34988 5.65621V6.55199H3.37991V4.09326H4.25591L4.87936 4.98905Z" fill="#C7F5CF"/>
<path d="M4.88006 4.99111V4.09399H5.8487V6.55139H4.97367L4.34925 5.65415V6.55139H3.38049V4.09399H4.25552L4.88006 4.99111Z" fill="#C6F5CE"/>
<path d="M4.88067 4.99306V4.09448H5.84809V6.55054H4.97404L4.34852 5.65197V6.55054H3.38123V4.09448H4.25516L4.88067 4.99306Z" fill="#C5F5CE"/>
<path d="M4.88129 4.99525V4.09521H5.84749V6.55006H4.97441L4.34792 5.65003V6.55006H3.38184V4.09521H4.25492L4.88129 4.99525Z" fill="#C4F4CD"/>
<path d="M4.88202 4.99732V4.09595H5.84676V6.54946H4.97478L4.34731 5.64797V6.54946H3.38245V4.09595H4.25456L4.88202 4.99732Z" fill="#C3F4CC"/>
<path d="M4.88263 4.99926V4.09644H5.84616V6.54861H4.97514L4.34659 5.64579V6.54861H3.38318V4.09644H4.2542L4.88263 4.99926Z" fill="#C2F4CB"/>
<path d="M4.88336 5.00145V4.09717H5.84556V6.54813H4.97539L4.34599 5.64385V6.54813H3.38379V4.09717H4.25383L4.88336 5.00145Z" fill="#C1F4CA"/>
<path d="M4.88397 5.00352V4.0979H5.84483V6.54753H4.97576L4.34538 5.64179V6.54753H3.3844V4.0979H4.25347L4.88397 5.00352Z" fill="#C0F4C9"/>
<path d="M4.88458 5.00546V4.09839H5.84423V6.54668H4.97613L4.34466 5.6396V6.54668H3.38513V4.09839H4.25323L4.88458 5.00546Z" fill="#BFF3C9"/>
<path d="M4.88531 5.00765V4.09912H5.84362V6.5462H4.97649L4.34405 5.63767V6.5462H3.38574V4.09912H4.25287L4.88531 5.00765Z" fill="#BEF3C8"/>
<path d="M4.88589 5.00972V4.09985H5.84287V6.54559H4.97671L4.34342 5.63561V6.54559H3.38632V4.09985H4.25248L4.88589 5.00972Z" fill="#BDF3C7"/>
<path d="M4.8865 5.01167V4.10034H5.84227V6.54475H4.97708L4.3427 5.63342V6.54475H3.38705V4.10034H4.25212L4.8865 5.01167Z" fill="#BCF3C6"/>
<path d="M4.88724 5.01386V4.10107H5.84166V6.54427H4.97745L4.34209 5.63148V6.54427H3.38766V4.10107H4.25176L4.88724 5.01386Z" fill="#BBF3C5"/>
<path d="M4.88785 5.01592V4.10181H5.84094V6.54366H4.97781L4.34149 5.62942V6.54366H3.38828V4.10181H4.25152L4.88785 5.01592Z" fill="#BAF3C4"/>
<path d="M4.88846 5.01787V4.10229H5.84033V6.54282H4.97818L4.34076 5.62724V6.54282H3.38901V4.10229H4.25116L4.88846 5.01787Z" fill="#B9F2C3"/>
<path d="M4.88919 5.01981V4.10278H5.83973V6.54209H4.97843L4.34016 5.62506V6.54209H3.38962V4.10278H4.2508L4.88919 5.01981Z" fill="#B8F2C3"/>
<path d="M4.8898 5.02188V4.10352H5.839V6.54149H4.97879L4.33956 5.623V6.54149H3.39023V4.10352H4.25044L4.8898 5.02188Z" fill="#B7F2C2"/>
<path d="M4.89041 5.02407V4.10425H5.8384V6.54088H4.97916L4.33883 5.62106V6.54088H3.39096V4.10425H4.25008L4.89041 5.02407Z" fill="#B6F2C1"/>
<path d="M4.89111 5.02602V4.10474H5.83777V6.54016H4.9795L4.3382 5.61888V6.54016H3.39154V4.10474H4.24981L4.89111 5.02602Z" fill="#B5F2C0"/>
<path d="M4.89172 5.02809V4.10547H5.83704V6.53955H4.97987L4.33759 5.61682V6.53955H3.39215V4.10547H4.24945L4.89172 5.02809Z" fill="#B4F1BF"/>
<path d="M4.89233 5.03027V4.1062H5.83644V6.53895H4.98011L4.33687 5.61488V6.53895H3.39288V4.1062H4.24909L4.89233 5.03027Z" fill="#B3F1BE"/>
<path d="M4.89306 5.03222V4.10669H5.83584V6.53823H4.98048L4.33626 5.6127V6.53823H3.39349V4.10669H4.24873L4.89306 5.03222Z" fill="#B2F1BD"/>
<path d="M4.89367 5.03429V4.10742H5.83511V6.53762H4.98085L4.33566 5.61063V6.53762H3.3941V4.10742H4.24849L4.89367 5.03429Z" fill="#B1F1BD"/>
<path d="M4.89429 5.0366V4.10815H5.83451V6.53702H4.98122L4.33494 5.6087V6.53702H3.39484V4.10815H4.24813L4.89429 5.0366Z" fill="#B0F1BC"/>
<path d="M4.89502 5.03854V4.10864H5.8339V6.53629H4.98158L4.33433 5.60651V6.53629H3.39545V4.10864H4.24777L4.89502 5.03854Z" fill="#AFF1BB"/>
<path d="M4.89563 5.04061V4.10938H5.83318V6.53569H4.98183L4.33373 5.60445V6.53569H3.39606V4.10938H4.2474L4.89563 5.04061Z" fill="#AEF0BA"/>
<path d="M4.89624 5.0428V4.11011H5.83258V6.53509H4.9822L4.333 5.60251V6.53509H3.39679V4.11011H4.24704L4.89624 5.0428Z" fill="#ADF0B9"/>
<path d="M4.89694 5.04475V4.1106H5.83194V6.53436H4.98254L4.33237 5.60033V6.53436H3.39737V4.1106H4.24677L4.89694 5.04475Z" fill="#ACF0B8"/>
<path d="M4.89755 5.04681V4.11133H5.83122V6.53376H4.9829L4.33177 5.59827V6.53376H3.39798V4.11133H4.24641L4.89755 5.04681Z" fill="#ABF0B8"/>
<path d="M4.89816 5.049V4.11206H5.83061V6.53315H4.98315L4.33104 5.59633V6.53315H3.39871V4.11206H4.24605L4.89816 5.049Z" fill="#AAF0B7"/>
<path d="M4.89889 5.05095V4.11255H5.83001V6.53243H4.98352L4.33044 5.59415V6.53243H3.39932V4.11255H4.24569L4.89889 5.05095Z" fill="#A9EFB6"/>
<path d="M4.8995 5.05302V4.11328H5.82928V6.53183H4.98389L4.32983 5.59209V6.53183H3.39993V4.11328H4.24533L4.8995 5.05302Z" fill="#A8EFB5"/>
<path d="M4.90011 5.05521V4.11401H5.82868V6.53122H4.98425L4.32911 5.59015V6.53122H3.40067V4.11401H4.24509L4.90011 5.05521Z" fill="#A7EFB4"/>
<path d="M4.90085 5.05715V4.1145H5.82808V6.5305H4.98462L4.32851 5.58797V6.5305H3.40128V4.1145H4.24473L4.90085 5.05715Z" fill="#A6EFB3"/>
<path d="M4.90146 5.05922V4.11523H5.82735V6.52989H4.98487L4.32778 5.58591V6.52989H3.40189V4.11523H4.24437L4.90146 5.05922Z" fill="#A5EFB2"/>
<path d="M4.90207 5.06141V4.11597H5.82675V6.52929H4.98524L4.32718 5.58397V6.52929H3.40262V4.11597H4.24401L4.90207 5.06141Z" fill="#A4EFB2"/>
<path d="M4.90277 5.06335V4.11646H5.82611V6.52856H4.98557L4.32654 5.58179V6.52856H3.4032V4.11646H4.24374L4.90277 5.06335Z" fill="#A3EEB1"/>
<path d="M4.90338 5.06542V4.11719H5.82539V6.52796H4.98594L4.32582 5.57973V6.52796H3.40381V4.11719H4.24338L4.90338 5.06542Z" fill="#A2EEB0"/>
<path d="M4.90399 5.06761V4.11792H5.82479V6.52736H4.98631L4.32521 5.57779V6.52736H3.40454V4.11792H4.24302L4.90399 5.06761Z" fill="#A1EEAF"/>
<path d="M4.90472 5.06956V4.11841H5.82418V6.52663H4.98655L4.32461 5.57561V6.52663H3.40515V4.11841H4.24266L4.90472 5.06956Z" fill="#A0EEAE"/>
<path d="M4.90533 5.07162V4.11914H5.82346V6.52603H4.98692L4.32389 5.57355V6.52603H3.40576V4.11914H4.2423L4.90533 5.07162Z" fill="#9FEEAD"/>
<path d="M4.90594 5.07381V4.11987H5.82285V6.52543H4.98729L4.32328 5.57161V6.52543H3.40649V4.11987H4.24206L4.90594 5.07381Z" fill="#9EEEAC"/>
<path d="M4.90668 5.07576V4.12036H5.82225V6.5247H4.98766L4.32268 5.56942V6.5247H3.4071V4.12036H4.2417L4.90668 5.07576Z" fill="#9DEDAC"/>
<path d="M4.90729 5.07783V4.12109H5.82152V6.5241H4.98802L4.32195 5.56736V6.5241H3.40771V4.12109H4.24134L4.90729 5.07783Z" fill="#9CEDAB"/>
<path d="M4.90787 5.08002V4.12183H5.82089V6.52349H4.98824L4.32132 5.56543V6.52349H3.40842V4.12183H4.24094L4.90787 5.08002Z" fill="#9BEDAA"/>
<path d="M4.9086 5.08196V4.12231H5.82029V6.52277H4.98861L4.32072 5.56324V6.52277H3.40903V4.12231H4.24058L4.9086 5.08196Z" fill="#9AEDA9"/>
<path d="M4.90921 5.08403V4.12305H5.81956V6.52217H4.98898L4.31999 5.56118V6.52217H3.40964V4.12305H4.24034L4.90921 5.08403Z" fill="#99EDA8"/>
<path d="M4.90982 5.08622V4.12378H5.81896V6.52156H4.98934L4.31939 5.55924V6.52156H3.41037V4.12378H4.23998L4.90982 5.08622Z" fill="#98ECA7"/>
<path d="M4.91055 5.08816V4.12427H5.81836V6.52084H4.98959L4.31878 5.55706V6.52084H3.41098V4.12427H4.23962L4.91055 5.08816Z" fill="#97ECA6"/>
<path d="M4.91116 5.09023V4.125H5.81763V6.52023H4.98996L4.31806 5.555V6.52023H3.41159V4.125H4.23926L4.91116 5.09023Z" fill="#96ECA6"/>
<path d="M4.91177 5.09218V4.12549H5.81703V6.51939H4.99033L4.31746 5.5527V6.51939H3.41232V4.12549H4.2389L4.91177 5.09218Z" fill="#95ECA5"/>
<path d="M4.9125 5.09437V4.12622H5.81642V6.5189H4.99069L4.31685 5.55076V6.5189H3.41293V4.12622H4.23866L4.9125 5.09437Z" fill="#94ECA4"/>
<path d="M4.91311 5.09644V4.12695H5.8157V6.5183H4.99106L4.31613 5.5487V6.5183H3.41354V4.12695H4.2383L4.91311 5.09644Z" fill="#93ECA3"/>
<path d="M4.9137 5.09838V4.12744H5.81506V6.51745H4.99128L4.31549 5.54651V6.51745H3.41425V4.12744H4.23791L4.9137 5.09838Z" fill="#92EBA2"/>
<path d="M4.91443 5.10057V4.12817H5.81434V6.51697H4.99165L4.31489 5.54458V6.51697H3.41486V4.12817H4.23755L4.91443 5.10057Z" fill="#91EBA1"/>
<path d="M4.91504 5.10264V4.12891H5.81374V6.51637H4.99201L4.31416 5.54252V6.51637H3.41547V4.12891H4.23731L4.91504 5.10264Z" fill="#90EBA1"/>
<path d="M4.91565 5.10458V4.12939H5.81313V6.51552H4.99238L4.31356 5.54033V6.51552H3.4162V4.12939H4.23695L4.91565 5.10458Z" fill="#8FEBA0"/>
<path d="M4.91638 5.10677V4.13013H5.81241V6.51504H4.99275L4.31296 5.5384V6.51504H3.41681V4.13013H4.23659L4.91638 5.10677Z" fill="#8EEB9F"/>
<path d="M4.91699 5.10884V4.13086H5.8118V6.51432H4.99299L4.31223 5.53634V6.51432H3.41754V4.13086H4.23623L4.91699 5.10884Z" fill="#8DEA9E"/>
<path d="M4.9176 5.11079V4.13135H5.8112V6.51359H4.99336L4.31163 5.53415V6.51359H3.41815V4.13135H4.23587L4.9176 5.11079Z" fill="#8CEA9D"/>
<path d="M4.91833 5.11285V4.13208H5.81048V6.51299H4.99373L4.31103 5.53209V6.51299H3.41876V4.13208H4.23563L4.91833 5.11285Z" fill="#8BEA9C"/>
<path d="M4.91894 5.11504V4.13281H5.80987V6.51238H4.9941L4.3103 5.53015V6.51238H3.41949V4.13281H4.23527L4.91894 5.11504Z" fill="#8AEA9B"/>
<path d="M4.91965 5.11699V4.1333H5.80924V6.51166H4.99431L4.30967 5.52797V6.51166H3.42007V4.1333H4.23488L4.91965 5.11699Z" fill="#89EA9B"/>
<path d="M4.92026 5.11906V4.13403H5.80851V6.51105H4.99468L4.30906 5.52591V6.51105H3.42068V4.13403H4.23452L4.92026 5.11906Z" fill="#88EA9A"/>
<path d="M4.92087 5.12125V4.13477H5.80791V6.51045H4.99505L4.30834 5.52397V6.51045H3.42142V4.13477H4.23416L4.92087 5.12125Z" fill="#87E999"/>
<path d="M4.9216 5.12319V4.13525H5.80731V6.50973H4.99542L4.30773 5.52179V6.50973H3.42203V4.13525H4.23392L4.9216 5.12319Z" fill="#86E998"/>
<path d="M4.92221 5.12526V4.13599H5.80658V6.50912H4.99578L4.30713 5.51973V6.50912H3.42264V4.13599H4.23355L4.92221 5.12526Z" fill="#85E997"/>
<path d="M4.92282 5.12745V4.13672H5.80598V6.50852H4.99603L4.30641 5.51779V6.50852H3.42337V4.13672H4.23319L4.92282 5.12745Z" fill="#84E996"/>
<path d="M4.92355 5.12939V4.13721H5.80537V6.50779H4.9964L4.3058 5.51561V6.50779H3.42398V4.13721H4.23283L4.92355 5.12939Z" fill="#83E995"/>
<path d="M4.92416 5.13146V4.13794H5.80465V6.50719H4.99677L4.3052 5.51355V6.50719H3.42459V4.13794H4.23259L4.92416 5.13146Z" fill="#82E895"/>
<path d="M4.92474 5.13365V4.13867H5.80401V6.50659H4.9971L4.30444 5.51161V6.50659H3.42529V4.13867H4.2322L4.92474 5.13365Z" fill="#81E894"/>
<path d="M4.92547 5.1356V4.13916H5.80341V6.50586H4.99747L4.30384 5.50943V6.50586H3.4259V4.13916H4.23184L4.92547 5.1356Z" fill="#80E893"/>
<path d="M4.92608 5.13766V4.13989H5.80269V6.50526H4.99772L4.30324 5.50737V6.50526H3.42651V4.13989H4.23148L4.92608 5.13766Z" fill="#7FE892"/>
<path d="M4.9267 5.13985V4.14062H5.80208V6.50466H4.99809L4.30251 5.50543V6.50466H3.42725V4.14062H4.23112L4.9267 5.13985Z" fill="#7EE891"/>
<path d="M4.92743 5.1418V4.14111H5.80148V6.50393H4.99845L4.30191 5.50324V6.50393H3.42786V4.14111H4.23088L4.92743 5.1418Z" fill="#7DE890"/>
<path d="M4.92804 5.14387V4.14185H5.80075V6.50333H4.99882L4.3013 5.50118V6.50333H3.42847V4.14185H4.23052L4.92804 5.14387Z" fill="#7CE790"/>
<path d="M4.92865 5.14606V4.14258H5.80015V6.50272H4.99919L4.30058 5.49925V6.50272H3.4292V4.14258H4.23016L4.92865 5.14606Z" fill="#7BE78F"/>
<path d="M4.92938 5.148V4.14307H5.79955V6.502H4.99944L4.29998 5.49706V6.502H3.42981V4.14307H4.2298L4.92938 5.148Z" fill="#7AE78E"/>
<path d="M4.92999 5.15007V4.1438H5.79882V6.50139H4.9998L4.29937 5.495V6.50139H3.43042V4.1438H4.22944L4.92999 5.15007Z" fill="#79E78D"/>
<path d="M4.93057 5.15226V4.14453H5.79819V6.50079H5.00014L4.29862 5.49306V6.50079H3.43112V4.14453H4.22917L4.93057 5.15226Z" fill="#78E78C"/>
<path d="M4.9313 5.1542V4.14502H5.79758V6.50007H5.00051L4.29801 5.49088V6.50007H3.43173V4.14502H4.22881L4.9313 5.1542Z" fill="#77E68B"/>
<path d="M4.93191 5.15627V4.14575H5.79686V6.49946H5.00075L4.29741 5.48882V6.49946H3.43234V4.14575H4.22845L4.93191 5.15627Z" fill="#76E68A"/>
<path d="M4.93252 5.15846V4.14648H5.79626V6.49886H5.00112L4.29668 5.48688V6.49886H3.43307V4.14648H4.22809L4.93252 5.15846Z" fill="#75E68A"/>
<path d="M4.93326 5.16041V4.14697H5.79565V6.49813H5.00149L4.29608 5.4847V6.49813H3.43369V4.14697H4.22773L4.93326 5.16041Z" fill="#74E689"/>
<path d="M4.93387 5.16247V4.14771H5.79493V6.49753H5.00186L4.29548 5.48264V6.49753H3.4343V4.14771H4.22749L4.93387 5.16247Z" fill="#73E688"/>
<path d="M4.93448 5.16442V4.14819H5.79432V6.49668H5.00223L4.29475 5.48046V6.49668H3.43503V4.14819H4.22713L4.93448 5.16442Z" fill="#72E687"/>
<path d="M4.93521 5.16661V4.14893H5.79372V6.4962H5.00247L4.29415 5.47852V6.4962H3.43564V4.14893H4.22676L4.93521 5.16661Z" fill="#71E586"/>
<path d="M4.93582 5.16868V4.14966H5.79299V6.4956H5.00284L4.29355 5.47646V6.4956H3.43625V4.14966H4.2264L4.93582 5.16868Z" fill="#70E585"/>
<path d="M4.9364 5.17062V4.15015H5.79236V6.49475H5.00318L4.29279 5.47428V6.49475H3.43695V4.15015H4.22613L4.9364 5.17062Z" fill="#6FE584"/>
<path d="M4.93713 5.17281V4.15088H5.79176V6.49427H5.00354L4.29219 5.47234V6.49427H3.43756V4.15088H4.22577L4.93713 5.17281Z" fill="#6EE584"/>
<path d="M4.93774 5.17488V4.15161H5.79103V6.49367H5.00391L4.29158 5.47028V6.49367H3.43817V4.15161H4.22541L4.93774 5.17488Z" fill="#6DE583"/>
<path d="M4.93835 5.17682V4.1521H5.79043V6.49282H5.00416L4.29086 5.46809V6.49282H3.4389V4.1521H4.22505L4.93835 5.17682Z" fill="#6CE482"/>
<path d="M4.93908 5.17901V4.15283H5.78982V6.49234H5.00453L4.29025 5.46616V6.49234H3.43951V4.15283H4.22469L4.93908 5.17901Z" fill="#6BE481"/>
<path d="M4.9397 5.18108V4.15356H5.7891V6.49173H5.00489L4.28965 5.4641V6.49173H3.44012V4.15356H4.22445L4.9397 5.18108Z" fill="#6AE480"/>
<path d="M4.94031 5.18303V4.15405H5.7885V6.49089H5.00526L4.28893 5.46191V6.49089H3.44086V4.15405H4.22409L4.94031 5.18303Z" fill="#69E47F"/>
<path d="M4.94104 5.18534V4.15479H5.78789V6.49041H5.00563L4.28832 5.45997V6.49041H3.44147V4.15479H4.22373L4.94104 5.18534Z" fill="#68E47F"/>
<path d="M4.94165 5.18741V4.15552H5.78717V6.4898H5.00588L4.28772 5.45791V6.4898H3.44208V4.15552H4.22337L4.94165 5.18741Z" fill="#67E47E"/>
<path d="M4.94223 5.18935V4.15601H5.78653V6.48896H5.00621L4.28696 5.45573V6.48896H3.44278V4.15601H4.22298L4.94223 5.18935Z" fill="#66E37D"/>
<path d="M4.94296 5.19154V4.15674H5.78593V6.48847H5.00658L4.28636 5.45379V6.48847H3.44339V4.15674H4.22274L4.94296 5.19154Z" fill="#65E37C"/>
<path d="M4.94357 5.19361V4.15747H5.78521V6.48787H5.00695L4.28563 5.45173V6.48787H3.444V4.15747H4.22238L4.94357 5.19361Z" fill="#64E37B"/>
<path d="M4.94418 5.19555V4.15796H5.7846V6.48702H5.0072L4.28503 5.44955V6.48702H3.44473V4.15796H4.22202L4.94418 5.19555Z" fill="#63E37A"/>
<path d="M4.94491 5.19774V4.15869H5.784V6.48654H5.00756L4.28443 5.44761V6.48654H3.44534V4.15869H4.22166L4.94491 5.19774Z" fill="#62E379"/>
<path d="M4.94552 5.19981V4.15942H5.78327V6.48594H5.00793L4.2837 5.44555V6.48594H3.44595V4.15942H4.22142L4.94552 5.19981Z" fill="#61E279"/>
<path d="M4.94614 5.20176V4.15991H5.78267V6.48509H5.0083L4.2831 5.44337V6.48509H3.44669V4.15991H4.22106L4.94614 5.20176Z" fill="#60E278"/>
<path d="M4.94687 5.20395V4.16064H5.78207V6.48461H5.00867L4.2825 5.44143V6.48461H3.4473V4.16064H4.2207L4.94687 5.20395Z" fill="#5FE277"/>
<path d="M4.94745 5.20601V4.16138H5.78131V6.48401H5.00888L4.28174 5.43937V6.48401H3.44788V4.16138H4.2203L4.94745 5.20601Z" fill="#5EE276"/>
<path d="M4.94806 5.20796V4.16187H5.78071V6.48316H5.00925L4.28114 5.43719V6.48316H3.44861V4.16187H4.21994L4.94806 5.20796Z" fill="#5DE275"/>
<path d="M4.94879 5.21015V4.1626H5.7801V6.48268H5.00962L4.28053 5.43525V6.48268H3.44922V4.1626H4.2197L4.94879 5.21015Z" fill="#5CE274"/>
<path d="M4.9494 5.21222V4.16333H5.77938V6.48207H5.00998L4.27981 5.43319V6.48207H3.44983V4.16333H4.21934L4.9494 5.21222Z" fill="#5BE173"/>
<path d="M4.95001 5.21416V4.16382H5.77877V6.48123H5.01035L4.2792 5.431V6.48123H3.45056V4.16382H4.21898L4.95001 5.21416Z" fill="#5AE173"/>
<path d="M4.95074 5.21635V4.16455H5.77817V6.48074H5.0106L4.2786 5.42907V6.48074H3.45117V4.16455H4.21862L4.95074 5.21635Z" fill="#59E172"/>
<path d="M4.95135 5.21842V4.16528H5.77745V6.48014H5.01097L4.27788 5.42701V6.48014H3.45178V4.16528H4.21826L4.95135 5.21842Z" fill="#58E171"/>
<path d="M4.95196 5.22036V4.16577H5.77684V6.47929H5.01134L4.27727 5.42482V6.47929H3.45251V4.16577H4.21802L4.95196 5.22036Z" fill="#57E170"/>
<path d="M4.9527 5.22255V4.1665H5.77612V6.47881H5.0117L4.27667 5.42288V6.47881H3.45312V4.1665H4.21766L4.9527 5.22255Z" fill="#56E16F"/>
<path d="M4.95328 5.22462V4.16724H5.77548V6.47821H5.01204L4.27591 5.42082V6.47821H3.4537V4.16724H4.21727L4.95328 5.22462Z" fill="#55E06E"/>
<path d="M4.95389 5.22657V4.16772H5.77488V6.47736H5.01229L4.27531 5.41864V6.47736H3.45444V4.16772H4.21691L4.95389 5.22657Z" fill="#54E06D"/>
<path d="M4.95462 5.22876V4.16846H5.77416V6.47688H5.01265L4.27471 5.4167V6.47688H3.45505V4.16846H4.21655L4.95462 5.22876Z" fill="#53E06D"/>
<path d="M4.95523 5.23082V4.16919H5.77355V6.47628H5.01302L4.27398 5.41464V6.47628H3.45566V4.16919H4.21631L4.95523 5.23082Z" fill="#52E06C"/>
<path d="M4.95596 5.23277V4.16968H5.77295V6.47543H5.01339L4.27338 5.41246V6.47543H3.45639V4.16968H4.21595L4.95596 5.23277Z" fill="#51E06B"/>
<path d="M4.95657 5.23471V4.17017H5.77222V6.4747H5.01364L4.27277 5.41028V6.4747H3.457V4.17017H4.21559L4.95657 5.23471Z" fill="#50DF6A"/>
<path d="M4.95718 5.23678V4.1709H5.77162V6.4741H5.014L4.27205 5.40822V6.4741H3.45773V4.1709H4.21523L4.95718 5.23678Z" fill="#4FDF69"/>
<path d="M4.95791 5.23897V4.17163H5.77102V6.4735H5.01437L4.27145 5.40628V6.4735H3.45834V4.17163H4.21499L4.95791 5.23897Z" fill="#4EDF68"/>
<path d="M4.95852 5.24092V4.17212H5.77029V6.47277H5.01474L4.27084 5.40397V6.47277H3.45895V4.17212H4.21463L4.95852 5.24092Z" fill="#4DDF68"/>
<path d="M4.95911 5.24298V4.17285H5.76966V6.47217H5.01508L4.27009 5.40191V6.47217H3.45966V4.17285H4.21424L4.95911 5.24298Z" fill="#4CDF67"/>
<path d="M4.95984 5.24517V4.17358H5.76905V6.47157H5.01532L4.26948 5.39998V6.47157H3.46027V4.17358H4.21388L4.95984 5.24517Z" fill="#4BDF66"/>
<path d="M4.96045 5.24724V4.17432H5.76833V6.47096H5.01569L4.26888 5.39792V6.47096H3.46088V4.17432H4.21352L4.96045 5.24724Z" fill="#4ADE65"/>
<path d="M4.96106 5.24919V4.1748H5.76773V6.47012H5.01606L4.26816 5.39573V6.47012H3.46161V4.1748H4.21328L4.96106 5.24919Z" fill="#49DE64"/>
<path d="M4.96179 5.25138V4.17554H5.76712V6.46963H5.01643L4.26755 5.39379V6.46963H3.46222V4.17554H4.21292L4.96179 5.25138Z" fill="#48DE63"/>
<path d="M4.9624 5.25344V4.17627H5.7664V6.46903H5.01679L4.26695 5.39173V6.46903H3.46283V4.17627H4.21255L4.9624 5.25344Z" fill="#47DE62"/>
<path d="M4.96301 5.25539V4.17676H5.76579V6.46818H5.01704L4.26622 5.38955V6.46818H3.46356V4.17676H4.21219L4.96301 5.25539Z" fill="#46DE62"/>
<path d="M4.96374 5.25758V4.17749H5.76519V6.4677H5.01741L4.26562 5.38761V6.4677H3.46417V4.17749H4.21183L4.96374 5.25758Z" fill="#45DD61"/>
<path d="M4.96432 5.25965V4.17822H5.76443V6.4671H5.01774L4.26498 5.38555V6.4671H3.46475V4.17822H4.21156L4.96432 5.25965Z" fill="#44DD60"/>
<path d="M4.96493 5.26159V4.17871H5.76383V6.46625H5.01811L4.26426 5.38337V6.46625H3.46548V4.17871H4.2112L4.96493 5.26159Z" fill="#43DD5F"/>
<path d="M4.96567 5.26378V4.17944H5.76323V6.46577H5.01836L4.26366 5.38143V6.46577H3.46609V4.17944H4.21084L4.96567 5.26378Z" fill="#42DD5E"/>
<path d="M4.96628 5.26585V4.18018H5.7625V6.46517H5.01873L4.26305 5.37937V6.46517H3.46671V4.18018H4.21048L4.96628 5.26585Z" fill="#41DD5D"/>
<path d="M4.96689 5.2678V4.18066H5.7619V6.46432H5.01909L4.26233 5.37719V6.46432H3.46744V4.18066H4.21024L4.96689 5.2678Z" fill="#40DD5C"/>
<path d="M4.96762 5.26998V4.1814H5.76129V6.46384H5.01946L4.26172 5.37525V6.46384H3.46805V4.1814H4.20988L4.96762 5.26998Z" fill="#3FDC5C"/>
<path d="M4.96823 5.27205V4.18213H5.76057V6.46323H5.01983L4.26112 5.37319V6.46323H3.46866V4.18213H4.20952L4.96823 5.27205Z" fill="#3EDC5B"/>
<path d="M4.96884 5.274V4.18262H5.75997V6.46239H5.02008L4.2604 5.37101V6.46239H3.46939V4.18262H4.20916L4.96884 5.274Z" fill="#3DDC5A"/>
<path d="M4.96957 5.27619V4.18335H5.75936V6.46191H5.02044L4.25979 5.36907V6.46191H3.47V4.18335H4.2088L4.96957 5.27619Z" fill="#3CDC59"/>
<path d="M4.97015 5.27826V4.18408H5.75861V6.4613H5.02078L4.25916 5.36701V6.4613H3.47058V4.18408H4.20853L4.97015 5.27826Z" fill="#3BDC58"/>
<path d="M4.97076 5.2802V4.18457H5.758V6.46046H5.02115L4.25843 5.36483V6.46046H3.47131V4.18457H4.20817L4.97076 5.2802Z" fill="#3ADB57"/>
<path d="M4.97149 5.28239V4.1853H5.7574V6.45997H5.02152L4.25783 5.36289V6.45997H3.47192V4.1853H4.20781L4.97149 5.28239Z" fill="#39DB57"/>
<path d="M4.9721 5.28446V4.18604H5.75668V6.45937H5.02176L4.25723 5.36083V6.45937H3.47253V4.18604H4.20745L4.9721 5.28446Z" fill="#38DB56"/>
<path d="M4.97272 5.2864V4.18652H5.75607V6.45852H5.02213L4.2565 5.35864V6.45852H3.47327V4.18652H4.20709L4.97272 5.2864Z" fill="#37DB55"/>
<path d="M4.97345 5.28859V4.18726H5.75547V6.45804H5.0225L4.2559 5.35671V6.45804H3.47388V4.18726H4.20685L4.97345 5.28859Z" fill="#36DB54"/>
<path d="M4.97406 5.29066V4.18799H5.75474V6.45744H5.02287L4.25529 5.35464V6.45744H3.47449V4.18799H4.20649L4.97406 5.29066Z" fill="#35DB53"/>
<path d="M4.97467 5.29261V4.18848H5.75414V6.45659H5.02323L4.25457 5.35246V6.45659H3.47522V4.18848H4.20613L4.97467 5.29261Z" fill="#34DA52"/>
<path d="M4.9754 5.29479V4.18921H5.75354V6.45611H5.02348L4.25397 5.35052V6.45611H3.47583V4.18921H4.20576L4.9754 5.29479Z" fill="#33DA51"/>
<path d="M4.97598 5.29686V4.18994H5.75278V6.45551H5.02382L4.25333 5.34846V6.45551H3.47641V4.18994H4.20537L4.97598 5.29686Z" fill="#32DA51"/>
<path d="M4.97659 5.29881V4.19043H5.75218V6.45466H5.02419L4.25261 5.34628V6.45466H3.47714V4.19043H4.20513L4.97659 5.29881Z" fill="#31DA50"/>
<path d="M4.97732 5.301V4.19116H5.75157V6.45418H5.02455L4.252 5.34434V6.45418H3.47775V4.19116H4.20477L4.97732 5.301Z" fill="#30DA4F"/>
<path d="M4.97793 5.30307V4.19189H5.75085V6.45357H5.0248L4.2514 5.34228V6.45357H3.47836V4.19189H4.20441L4.97793 5.30307Z" fill="#2FD94E"/>
<path d="M4.97854 5.30501V4.19238H5.75025V6.45273H5.02517L4.25067 5.3401V6.45273H3.4791V4.19238H4.20405L4.97854 5.30501Z" fill="#2ED94D"/>
<path d="M4.97928 5.30696V4.19287H5.74964V6.452H5.02554L4.25007 5.33792V6.452H3.47971V4.19287H4.20381L4.97928 5.30696Z" fill="#2DD94C"/>
<path d="M4.97989 5.30902V4.1936H5.74892V6.4514H5.0259L4.24947 5.33586V6.4514H3.48032V4.1936H4.20345L4.97989 5.30902Z" fill="#2CD94B"/>
<path d="M4.9805 5.31121V4.19434H5.74831V6.45079H5.02627L4.24874 5.33392V6.45079H3.48105V4.19434H4.20309L4.9805 5.31121Z" fill="#2BD94B"/>
<path d="M4.98123 5.31316V4.19482H5.74771V6.45007H5.02652L4.24814 5.33173V6.45007H3.48166V4.19482H4.20273L4.98123 5.31316Z" fill="#2AD94A"/>
<path d="M4.98181 5.31523V4.19556H5.74695V6.44947H5.02685L4.2475 5.32967V6.44947H3.48224V4.19556H4.20234L4.98181 5.31523Z" fill="#29D849"/>
<path d="M4.98242 5.31742V4.19629H5.74635V6.44886H5.02722L4.24678 5.32774V6.44886H3.48297V4.19629H4.2021L4.98242 5.31742Z" fill="#28D848"/>
<path d="M4.98315 5.31936V4.19678H5.74575V6.44814H5.02759L4.24618 5.32555V6.44814H3.48358V4.19678H4.20174L4.98315 5.31936Z" fill="#27D847"/>
<path d="M4.98376 5.32143V4.19751H5.74502V6.44753H5.02796L4.24545 5.32349V6.44753H3.48419V4.19751H4.20138L4.98376 5.32143Z" fill="#26D846"/>
<path d="M4.98437 5.32362V4.19824H5.74442V6.44693H5.0282L4.24485 5.32155V6.44693H3.48492V4.19824H4.20102L4.98437 5.32362Z" fill="#25D845"/>
<path d="M4.98511 5.32556V4.19873H5.74381V6.4462H5.02857L4.24424 5.31937V6.4462H3.48553V4.19873H4.20066L4.98511 5.32556Z" fill="#24D745"/>
<path d="M4.98572 5.32763V4.19946H5.74309V6.4456H5.02894L4.24352 5.31731V6.4456H3.48615V4.19946H4.20042L4.98572 5.32763Z" fill="#23D744"/>
<path d="M4.98633 5.32982V4.2002H5.74249V6.445H5.02931L4.24292 5.31537V6.445H3.48688V4.2002H4.20006L4.98633 5.32982Z" fill="#22D743"/>
<path d="M4.98703 5.33177V4.20068H5.74185V6.44427H5.02964L4.24228 5.31319V6.44427H3.48746V4.20068H4.19967L4.98703 5.33177Z" fill="#21D742"/>
<path d="M4.98764 5.33383V4.20142H5.74113V6.44367H5.02989L4.24156 5.31113V6.44367H3.48807V4.20142H4.1993L4.98764 5.33383Z" fill="#20D741"/>
<path d="M4.98825 5.33614V4.20215H5.74052V6.44307H5.03026L4.24095 5.30919V6.44307H3.4888V4.20215H4.19894L4.98825 5.33614Z" fill="#1FD740"/>
<path d="M4.98898 5.33809V4.20264H5.73992V6.44234H5.03063L4.24035 5.30701V6.44234H3.48941V4.20264H4.1987L4.98898 5.33809Z" fill="#1ED640"/>
<path d="M4.98959 5.34016V4.20337H5.73919V6.44174H5.03099L4.23962 5.30495V6.44174H3.49002V4.20337H4.19834L4.98959 5.34016Z" fill="#1DD63F"/>
<path d="M4.9902 5.34235V4.2041H5.73859V6.44113H5.03124L4.23902 5.30301V6.44113H3.49075V4.2041H4.19798L4.9902 5.34235Z" fill="#1CD63E"/>
<path d="M4.99093 5.34429V4.20459H5.73799V6.44041H5.03161L4.23842 5.30083V6.44041H3.49136V4.20459H4.19762L4.99093 5.34429Z" fill="#1BD63D"/>
<path d="M4.99154 5.34636V4.20532H5.73726V6.43981H5.03198L4.23769 5.29877V6.43981H3.49197V4.20532H4.19738L4.99154 5.34636Z" fill="#1AD63C"/>
<path d="M4.99216 5.34855V4.20605H5.73666V6.4392H5.03234L4.23709 5.29683V6.4392H3.49271V4.20605H4.19702L4.99216 5.34855Z" fill="#19D63B"/>
<path d="M4.99286 5.3505V4.20654H5.7359V6.43848H5.03268L4.23645 5.29465V6.43848H3.49329V4.20654H4.19663L4.99286 5.3505Z" fill="#18D53A"/>
<path d="M4.99347 5.35256V4.20728H5.7353V6.43787H5.03293L4.23573 5.29259V6.43787H3.4939V4.20728H4.19627L4.99347 5.35256Z" fill="#17D53A"/>
<path d="M4.9942 5.35475V4.20801H5.7347V6.43727H5.03329L4.23513 5.29065V6.43727H3.49463V4.20801H4.19591L4.9942 5.35475Z" fill="#16D539"/>
<path d="M4.99481 5.3567V4.2085H5.73397V6.43654H5.03366L4.23452 5.28846V6.43654H3.49524V4.2085H4.19567L4.99481 5.3567Z" fill="#15D538"/>
<path d="M4.99542 5.35877V4.20923H5.73337V6.43594H5.03403L4.2338 5.2864V6.43594H3.49597V4.20923H4.19531L4.99542 5.35877Z" fill="#14D537"/>
<path d="M4.99615 5.36096V4.20996H5.73277V6.43534H5.0344L4.23319 5.28447V6.43534H3.49658V4.20996H4.19495L4.99615 5.36096Z" fill="#13D436"/>
<path d="M4.99676 5.3629V4.21045H5.73204V6.43461H5.03464L4.23259 5.28228V6.43461H3.49719V4.21045H4.19459L4.99676 5.3629Z" fill="#12D435"/>
<path d="M4.99737 5.36497V4.21118H5.73144V6.43401H5.03501L4.23187 5.28022V6.43401H3.49792V4.21118H4.19423L4.99737 5.36497Z" fill="#11D434"/>
<path d="M4.99811 5.36716V4.21191H5.73083V6.43341H5.03538L4.23126 5.27828V6.43341H3.49854V4.21191H4.19399L4.99811 5.36716Z" fill="#10D434"/>
<path d="M4.99869 5.3691V4.2124H5.73008V6.43268H5.03572L4.23063 5.2761V6.43268H3.49911V4.2124H4.1936L4.99869 5.3691Z" fill="#0FD433"/>
<path d="M4.9993 5.37117V4.21313H5.72947V6.43208H5.03596L4.2299 5.27404V6.43208H3.49985V4.21313H4.19324L4.9993 5.37117Z" fill="#0ED432"/>
<path d="M5.00003 5.37336V4.21387H5.72887V6.43147H5.03633L4.2293 5.2721V6.43147H3.50046V4.21387H4.19288L5.00003 5.37336Z" fill="#0DD331"/>
<path d="M5.00064 5.37531V4.21436H5.72815V6.43075H5.0367L4.2287 5.26992V6.43075H3.50107V4.21436H4.19264L5.00064 5.37531Z" fill="#0CD330"/>
<path d="M5.00125 5.37737V4.21509H5.72754V6.43014H5.03707L4.22797 5.26786V6.43014H3.5018V4.21509H4.19228L5.00125 5.37737Z" fill="#0BD32F"/>
<path d="M5.00198 5.37932V4.21558H5.72694V6.4293H5.03743L4.22737 5.26568V6.4293H3.50241V4.21558H4.19191L5.00198 5.37932Z" fill="#0AD32F"/>
<path d="M5.00259 5.38139V4.21631H5.72621V6.42869H5.03768L4.22676 5.26362V6.42869H3.50302V4.21631H4.19155L5.00259 5.38139Z" fill="#09D32E"/>
<path d="M5.0032 5.38358V4.21704H5.72561V6.42809H5.03805L4.22604 5.26168V6.42809H3.50375V4.21704H4.19119L5.0032 5.38358Z" fill="#08D22D"/>
<path d="M5.0039 5.38552V4.21753H5.72498V6.42737H5.03839L4.2254 5.2595V6.42737H3.50433V4.21753H4.19092L5.0039 5.38552Z" fill="#07D22C"/>
<path d="M5.00451 5.38759V4.21826H5.72425V6.42676H5.03875L4.2248 5.25743V6.42676H3.50494V4.21826H4.19056L5.00451 5.38759Z" fill="#06D22B"/>
<path d="M5.00513 5.38978V4.21899H5.72365V6.42616H5.03912L4.22408 5.25537V6.42616H3.50568V4.21899H4.1902L5.00513 5.38978Z" fill="#05D22A"/>
<path d="M5.00586 5.39172V4.21948H5.72304V6.42543H5.03937L4.22347 5.25319V6.42543H3.50629V4.21948H4.18984L5.00586 5.39172Z" fill="#04D229"/>
<path d="M5.00647 5.39379V4.22021H5.72232V6.42483H5.03973L4.22287 5.25113V6.42483H3.5069V4.22021H4.18948L5.00647 5.39379Z" fill="#03D229"/>
<path d="M5.00708 5.39598V4.22095H5.72172V6.42423H5.0401L4.22214 5.24919V6.42423H3.50763V4.22095H4.18924L5.00708 5.39598Z" fill="#02D128"/>
<path d="M5.00781 5.39793V4.22144H5.72111V6.4235H5.04047L4.22154 5.24701V6.4235H3.50824V4.22144H4.18888L5.00781 5.39793Z" fill="#01D127"/>
<path d="M5.00842 5.39999L4.18852 4.22217H3.50885V6.4229H4.22094V5.24495L5.04084 6.4229H5.72039V4.22217H5.00842V5.39999Z" fill="#00D126"/>
</g>
<path d="M5.00839 5.40024L4.18849 4.22241H3.50882V6.42314H4.22091V5.24519L5.04081 6.42314H5.72036V4.22241H5.00839V5.40024Z" fill="url(#paint106_linear_98_1222)"/>
<defs>
<linearGradient id="paint0_linear_98_1222" x1="6.21634" y1="0.86868" x2="6.21634" y2="13.0493" gradientUnits="userSpaceOnUse">
<stop stop-color="white"/>
<stop offset="0.76" stop-color="#F6FDFF"/>
<stop offset="1" stop-color="#F2FDFF"/>
</linearGradient>
<linearGradient id="paint1_linear_98_1222" x1="5.33015" y1="11.0133" x2="5.33015" y2="13.1782" gradientUnits="userSpaceOnUse">
<stop stop-color="#83D6DB"/>
<stop offset="1" stop-color="white"/>
</linearGradient>
<linearGradient id="paint2_linear_98_1222" x1="5.40797" y1="0.783859" x2="5.40797" y2="13.1782" gradientUnits="userSpaceOnUse">
<stop stop-color="#83D6DB"/>
<stop offset="1" stop-color="white"/>
</linearGradient>
<linearGradient id="paint3_linear_98_1222" x1="5.48579" y1="0.783858" x2="5.48579" y2="0.783858" gradientUnits="userSpaceOnUse">
<stop stop-color="#83D6DB"/>
<stop offset="1" stop-color="white"/>
</linearGradient>
<linearGradient id="paint4_linear_98_1222" x1="5.56364" y1="0.783859" x2="5.56364" y2="13.1782" gradientUnits="userSpaceOnUse">
<stop stop-color="#83D6DB"/>
<stop offset="1" stop-color="white"/>
</linearGradient>
<linearGradient id="paint5_linear_98_1222" x1="5.64146" y1="0.783858" x2="5.64146" y2="0.783858" gradientUnits="userSpaceOnUse">
<stop stop-color="#83D6DB"/>
<stop offset="1" stop-color="white"/>
</linearGradient>
<linearGradient id="paint6_linear_98_1222" x1="5.71928" y1="11.0133" x2="5.71928" y2="0.783859" gradientUnits="userSpaceOnUse">
<stop stop-color="#83D6DB"/>
<stop offset="1" stop-color="white"/>
</linearGradient>
<linearGradient id="paint7_linear_98_1222" x1="5.7971" y1="0.783858" x2="5.7971" y2="0.783858" gradientUnits="userSpaceOnUse">
<stop stop-color="#83D6DB"/>
<stop offset="1" stop-color="white"/>
</linearGradient>
<linearGradient id="paint8_linear_98_1222" x1="5.87492" y1="0.783858" x2="5.87492" y2="0.783858" gradientUnits="userSpaceOnUse">
<stop stop-color="#83D6DB"/>
<stop offset="1" stop-color="white"/>
</linearGradient>
<linearGradient id="paint9_linear_98_1222" x1="5.95265" y1="0.783858" x2="5.95265" y2="0.783858" gradientUnits="userSpaceOnUse">
<stop stop-color="#83D6DB"/>
<stop offset="1" stop-color="white"/>
</linearGradient>
<linearGradient id="paint10_linear_98_1222" x1="6.03046" y1="0.783858" x2="6.03046" y2="0.783858" gradientUnits="userSpaceOnUse">
<stop stop-color="#83D6DB"/>
<stop offset="1" stop-color="white"/>
</linearGradient>
<linearGradient id="paint11_linear_98_1222" x1="6.10828" y1="0.783858" x2="6.10828" y2="0.783858" gradientUnits="userSpaceOnUse">
<stop stop-color="#83D6DB"/>
<stop offset="1" stop-color="white"/>
</linearGradient>
<linearGradient id="paint12_linear_98_1222" x1="6.1861" y1="0.783858" x2="6.1861" y2="0.783858" gradientUnits="userSpaceOnUse">
<stop stop-color="#83D6DB"/>
<stop offset="1" stop-color="white"/>
</linearGradient>
<linearGradient id="paint13_linear_98_1222" x1="6.26392" y1="0.783858" x2="6.26392" y2="0.783858" gradientUnits="userSpaceOnUse">
<stop stop-color="#83D6DB"/>
<stop offset="1" stop-color="white"/>
</linearGradient>
<linearGradient id="paint14_linear_98_1222" x1="6.34177" y1="0.783858" x2="6.34177" y2="0.783858" gradientUnits="userSpaceOnUse">
<stop stop-color="#83D6DB"/>
<stop offset="1" stop-color="white"/>
</linearGradient>
<linearGradient id="paint15_linear_98_1222" x1="6.41959" y1="0.783858" x2="6.41959" y2="0.783858" gradientUnits="userSpaceOnUse">
<stop stop-color="#83D6DB"/>
<stop offset="1" stop-color="white"/>
</linearGradient>
<linearGradient id="paint16_linear_98_1222" x1="6.49741" y1="0.783858" x2="6.49741" y2="0.783858" gradientUnits="userSpaceOnUse">
<stop stop-color="#83D6DB"/>
<stop offset="1" stop-color="white"/>
</linearGradient>
<linearGradient id="paint17_linear_98_1222" x1="6.57523" y1="0.783858" x2="6.57523" y2="0.783858" gradientUnits="userSpaceOnUse">
<stop stop-color="#83D6DB"/>
<stop offset="1" stop-color="white"/>
</linearGradient>
<linearGradient id="paint18_linear_98_1222" x1="6.65305" y1="0.783858" x2="6.65305" y2="0.783858" gradientUnits="userSpaceOnUse">
<stop stop-color="#83D6DB"/>
<stop offset="1" stop-color="white"/>
</linearGradient>
<linearGradient id="paint19_linear_98_1222" x1="6.73087" y1="0.783858" x2="6.73087" y2="0.783858" gradientUnits="userSpaceOnUse">
<stop stop-color="#83D6DB"/>
<stop offset="1" stop-color="white"/>
</linearGradient>
<linearGradient id="paint20_linear_98_1222" x1="6.80872" y1="11.0133" x2="6.80872" y2="0.783859" gradientUnits="userSpaceOnUse">
<stop stop-color="#83D6DB"/>
<stop offset="1" stop-color="white"/>
</linearGradient>
<linearGradient id="paint21_linear_98_1222" x1="6.88654" y1="0.783858" x2="6.88654" y2="0.783858" gradientUnits="userSpaceOnUse">
<stop stop-color="#83D6DB"/>
<stop offset="1" stop-color="white"/>
</linearGradient>
<linearGradient id="paint22_linear_98_1222" x1="6.96436" y1="0.783858" x2="6.96436" y2="0.783858" gradientUnits="userSpaceOnUse">
<stop stop-color="#83D6DB"/>
<stop offset="1" stop-color="white"/>
</linearGradient>
<linearGradient id="paint23_linear_98_1222" x1="7.04218" y1="0.783858" x2="7.04218" y2="0.783858" gradientUnits="userSpaceOnUse">
<stop stop-color="#83D6DB"/>
<stop offset="1" stop-color="white"/>
</linearGradient>
<linearGradient id="paint24_linear_98_1222" x1="7.12" y1="0.783858" x2="7.12" y2="0.783858" gradientUnits="userSpaceOnUse">
<stop stop-color="#83D6DB"/>
<stop offset="1" stop-color="white"/>
</linearGradient>
<linearGradient id="paint25_linear_98_1222" x1="7.19785" y1="11.0133" x2="7.19785" y2="0.783859" gradientUnits="userSpaceOnUse">
<stop stop-color="#83D6DB"/>
<stop offset="1" stop-color="white"/>
</linearGradient>
<linearGradient id="paint26_linear_98_1222" x1="7.27567" y1="0.783858" x2="7.27567" y2="0.783858" gradientUnits="userSpaceOnUse">
<stop stop-color="#83D6DB"/>
<stop offset="1" stop-color="white"/>
</linearGradient>
<linearGradient id="paint27_linear_98_1222" x1="7.35337" y1="0.783858" x2="7.35337" y2="0.783858" gradientUnits="userSpaceOnUse">
<stop stop-color="#83D6DB"/>
<stop offset="1" stop-color="white"/>
</linearGradient>
<linearGradient id="paint28_linear_98_1222" x1="7.43119" y1="0.783858" x2="7.43119" y2="0.783858" gradientUnits="userSpaceOnUse">
<stop stop-color="#83D6DB"/>
<stop offset="1" stop-color="white"/>
</linearGradient>
<linearGradient id="paint29_linear_98_1222" x1="7.50901" y1="11.0133" x2="7.50901" y2="0.783859" gradientUnits="userSpaceOnUse">
<stop stop-color="#83D6DB"/>
<stop offset="1" stop-color="white"/>
</linearGradient>
<linearGradient id="paint30_linear_98_1222" x1="7.58686" y1="0.783858" x2="7.58686" y2="0.783858" gradientUnits="userSpaceOnUse">
<stop stop-color="#83D6DB"/>
<stop offset="1" stop-color="white"/>
</linearGradient>
<linearGradient id="paint31_linear_98_1222" x1="7.66468" y1="0.783858" x2="7.66468" y2="0.783858" gradientUnits="userSpaceOnUse">
<stop stop-color="#83D6DB"/>
<stop offset="1" stop-color="white"/>
</linearGradient>
<linearGradient id="paint32_linear_98_1222" x1="7.7425" y1="0.783858" x2="7.7425" y2="0.783858" gradientUnits="userSpaceOnUse">
<stop stop-color="#83D6DB"/>
<stop offset="1" stop-color="white"/>
</linearGradient>
<linearGradient id="paint33_linear_98_1222" x1="7.82032" y1="11.0133" x2="7.82032" y2="0.783859" gradientUnits="userSpaceOnUse">
<stop stop-color="#83D6DB"/>
<stop offset="1" stop-color="white"/>
</linearGradient>
<linearGradient id="paint34_linear_98_1222" x1="7.89814" y1="11.0133" x2="7.89814" y2="0.783859" gradientUnits="userSpaceOnUse">
<stop stop-color="#83D6DB"/>
<stop offset="1" stop-color="white"/>
</linearGradient>
<linearGradient id="paint35_linear_98_1222" x1="7.97599" y1="11.0133" x2="7.97599" y2="0.783859" gradientUnits="userSpaceOnUse">
<stop stop-color="#83D6DB"/>
<stop offset="1" stop-color="white"/>
</linearGradient>
<linearGradient id="paint36_linear_98_1222" x1="8.05381" y1="0.783858" x2="8.05381" y2="0.783858" gradientUnits="userSpaceOnUse">
<stop stop-color="#83D6DB"/>
<stop offset="1" stop-color="white"/>
</linearGradient>
<linearGradient id="paint37_linear_98_1222" x1="8.13163" y1="0.783858" x2="8.13163" y2="0.783858" gradientUnits="userSpaceOnUse">
<stop stop-color="#83D6DB"/>
<stop offset="1" stop-color="white"/>
</linearGradient>
<linearGradient id="paint38_linear_98_1222" x1="8.20945" y1="11.0133" x2="8.20945" y2="0.783859" gradientUnits="userSpaceOnUse">
<stop stop-color="#83D6DB"/>
<stop offset="1" stop-color="white"/>
</linearGradient>
<linearGradient id="paint39_linear_98_1222" x1="8.28727" y1="11.0133" x2="8.28727" y2="0.783859" gradientUnits="userSpaceOnUse">
<stop stop-color="#83D6DB"/>
<stop offset="1" stop-color="white"/>
</linearGradient>
<linearGradient id="paint40_linear_98_1222" x1="8.36512" y1="0.783858" x2="8.36512" y2="0.783858" gradientUnits="userSpaceOnUse">
<stop stop-color="#83D6DB"/>
<stop offset="1" stop-color="white"/>
</linearGradient>
<linearGradient id="paint41_linear_98_1222" x1="8.44294" y1="0.783858" x2="8.44294" y2="0.783858" gradientUnits="userSpaceOnUse">
<stop stop-color="#83D6DB"/>
<stop offset="1" stop-color="white"/>
</linearGradient>
<linearGradient id="paint42_linear_98_1222" x1="8.52076" y1="0.783858" x2="8.52076" y2="0.783858" gradientUnits="userSpaceOnUse">
<stop stop-color="#83D6DB"/>
<stop offset="1" stop-color="white"/>
</linearGradient>
<linearGradient id="paint43_linear_98_1222" x1="8.59858" y1="11.0133" x2="8.59858" y2="0.783859" gradientUnits="userSpaceOnUse">
<stop stop-color="#83D6DB"/>
<stop offset="1" stop-color="white"/>
</linearGradient>
<linearGradient id="paint44_linear_98_1222" x1="8.67628" y1="0.783858" x2="8.67628" y2="0.783858" gradientUnits="userSpaceOnUse">
<stop stop-color="#83D6DB"/>
<stop offset="1" stop-color="white"/>
</linearGradient>
<linearGradient id="paint45_linear_98_1222" x1="8.7541" y1="0.783858" x2="8.7541" y2="0.783858" gradientUnits="userSpaceOnUse">
<stop stop-color="#83D6DB"/>
<stop offset="1" stop-color="white"/>
</linearGradient>
<linearGradient id="paint46_linear_98_1222" x1="8.83195" y1="0.783858" x2="8.83195" y2="0.783858" gradientUnits="userSpaceOnUse">
<stop stop-color="#83D6DB"/>
<stop offset="1" stop-color="white"/>
</linearGradient>
<linearGradient id="paint47_linear_98_1222" x1="8.90977" y1="0.783858" x2="8.90977" y2="0.783858" gradientUnits="userSpaceOnUse">
<stop stop-color="#83D6DB"/>
<stop offset="1" stop-color="white"/>
</linearGradient>
<linearGradient id="paint48_linear_98_1222" x1="8.98759" y1="0.783858" x2="8.98759" y2="0.783858" gradientUnits="userSpaceOnUse">
<stop stop-color="#83D6DB"/>
<stop offset="1" stop-color="white"/>
</linearGradient>
<linearGradient id="paint49_linear_98_1222" x1="9.06541" y1="0.783858" x2="9.06541" y2="0.783858" gradientUnits="userSpaceOnUse">
<stop stop-color="#83D6DB"/>
<stop offset="1" stop-color="white"/>
</linearGradient>
<linearGradient id="paint50_linear_98_1222" x1="9.14323" y1="0.783858" x2="9.14323" y2="0.783858" gradientUnits="userSpaceOnUse">
<stop stop-color="#83D6DB"/>
<stop offset="1" stop-color="white"/>
</linearGradient>
<linearGradient id="paint51_linear_98_1222" x1="9.22108" y1="0.783858" x2="9.22108" y2="0.783858" gradientUnits="userSpaceOnUse">
<stop stop-color="#83D6DB"/>
<stop offset="1" stop-color="white"/>
</linearGradient>
<linearGradient id="paint52_linear_98_1222" x1="9.2989" y1="0.783858" x2="9.2989" y2="0.783858" gradientUnits="userSpaceOnUse">
<stop stop-color="#83D6DB"/>
<stop offset="1" stop-color="white"/>
</linearGradient>
<linearGradient id="paint53_linear_98_1222" x1="9.37672" y1="0.783858" x2="9.37672" y2="0.783858" gradientUnits="userSpaceOnUse">
<stop stop-color="#83D6DB"/>
<stop offset="1" stop-color="white"/>
</linearGradient>
<linearGradient id="paint54_linear_98_1222" x1="9.45454" y1="0.783858" x2="9.45454" y2="0.783858" gradientUnits="userSpaceOnUse">
<stop stop-color="#83D6DB"/>
<stop offset="1" stop-color="white"/>
</linearGradient>
<linearGradient id="paint55_linear_98_1222" x1="9.53236" y1="0.783858" x2="9.53236" y2="0.783858" gradientUnits="userSpaceOnUse">
<stop stop-color="#83D6DB"/>
<stop offset="1" stop-color="white"/>
</linearGradient>
<linearGradient id="paint56_linear_98_1222" x1="9.61021" y1="0.783858" x2="9.61021" y2="0.783858" gradientUnits="userSpaceOnUse">
<stop stop-color="#83D6DB"/>
<stop offset="1" stop-color="white"/>
</linearGradient>
<linearGradient id="paint57_linear_98_1222" x1="9.68803" y1="0.783858" x2="9.68803" y2="0.783858" gradientUnits="userSpaceOnUse">
<stop stop-color="#83D6DB"/>
<stop offset="1" stop-color="white"/>
</linearGradient>
<linearGradient id="paint58_linear_98_1222" x1="9.76585" y1="0.783858" x2="9.76585" y2="0.783858" gradientUnits="userSpaceOnUse">
<stop stop-color="#83D6DB"/>
<stop offset="1" stop-color="white"/>
</linearGradient>
<linearGradient id="paint59_linear_98_1222" x1="9.84367" y1="0.783858" x2="9.84367" y2="0.783858" gradientUnits="userSpaceOnUse">
<stop stop-color="#83D6DB"/>
<stop offset="1" stop-color="white"/>
</linearGradient>
<linearGradient id="paint60_linear_98_1222" x1="9.92149" y1="0.783858" x2="9.92149" y2="0.783858" gradientUnits="userSpaceOnUse">
<stop stop-color="#83D6DB"/>
<stop offset="1" stop-color="white"/>
</linearGradient>
<linearGradient id="paint61_linear_98_1222" x1="9.99934" y1="11.0133" x2="9.99934" y2="0.783859" gradientUnits="userSpaceOnUse">
<stop stop-color="#83D6DB"/>
<stop offset="1" stop-color="white"/>
</linearGradient>
<linearGradient id="paint62_linear_98_1222" x1="10.077" y1="11.0133" x2="10.077" y2="0.783859" gradientUnits="userSpaceOnUse">
<stop stop-color="#83D6DB"/>
<stop offset="1" stop-color="white"/>
</linearGradient>
<linearGradient id="paint63_linear_98_1222" x1="10.1549" y1="11.0133" x2="10.1549" y2="0.783859" gradientUnits="userSpaceOnUse">
<stop stop-color="#83D6DB"/>
<stop offset="1" stop-color="white"/>
</linearGradient>
<linearGradient id="paint64_linear_98_1222" x1="10.2327" y1="0.783858" x2="10.2327" y2="0.783858" gradientUnits="userSpaceOnUse">
<stop stop-color="#83D6DB"/>
<stop offset="1" stop-color="white"/>
</linearGradient>
<linearGradient id="paint65_linear_98_1222" x1="10.3105" y1="0.783858" x2="10.3105" y2="0.783858" gradientUnits="userSpaceOnUse">
<stop stop-color="#83D6DB"/>
<stop offset="1" stop-color="white"/>
</linearGradient>
<linearGradient id="paint66_linear_98_1222" x1="10.3883" y1="11.0133" x2="10.3883" y2="0.783859" gradientUnits="userSpaceOnUse">
<stop stop-color="#83D6DB"/>
<stop offset="1" stop-color="white"/>
</linearGradient>
<linearGradient id="paint67_linear_98_1222" x1="10.4662" y1="11.0133" x2="10.4662" y2="0.783859" gradientUnits="userSpaceOnUse">
<stop stop-color="#83D6DB"/>
<stop offset="1" stop-color="white"/>
</linearGradient>
<linearGradient id="paint68_linear_98_1222" x1="10.544" y1="0.783858" x2="10.544" y2="0.783858" gradientUnits="userSpaceOnUse">
<stop stop-color="#83D6DB"/>
<stop offset="1" stop-color="white"/>
</linearGradient>
<linearGradient id="paint69_linear_98_1222" x1="10.6218" y1="0.783858" x2="10.6218" y2="0.783858" gradientUnits="userSpaceOnUse">
<stop stop-color="#83D6DB"/>
<stop offset="1" stop-color="white"/>
</linearGradient>
<linearGradient id="paint70_linear_98_1222" x1="10.6996" y1="11.0133" x2="10.6996" y2="0.783859" gradientUnits="userSpaceOnUse">
<stop stop-color="#83D6DB"/>
<stop offset="1" stop-color="white"/>
</linearGradient>
<linearGradient id="paint71_linear_98_1222" x1="10.7774" y1="11.0133" x2="10.7774" y2="0.783859" gradientUnits="userSpaceOnUse">
<stop stop-color="#83D6DB"/>
<stop offset="1" stop-color="white"/>
</linearGradient>
<linearGradient id="paint72_linear_98_1222" x1="10.8553" y1="11.0133" x2="10.8553" y2="0.783859" gradientUnits="userSpaceOnUse">
<stop stop-color="#83D6DB"/>
<stop offset="1" stop-color="white"/>
</linearGradient>
<linearGradient id="paint73_linear_98_1222" x1="10.9331" y1="0.783858" x2="10.9331" y2="0.783858" gradientUnits="userSpaceOnUse">
<stop stop-color="#83D6DB"/>
<stop offset="1" stop-color="white"/>
</linearGradient>
<linearGradient id="paint74_linear_98_1222" x1="11.0109" y1="0.783858" x2="11.0109" y2="0.783858" gradientUnits="userSpaceOnUse">
<stop stop-color="#83D6DB"/>
<stop offset="1" stop-color="white"/>
</linearGradient>
<linearGradient id="paint75_linear_98_1222" x1="11.0888" y1="0.783858" x2="11.0888" y2="0.783858" gradientUnits="userSpaceOnUse">
<stop stop-color="#83D6DB"/>
<stop offset="1" stop-color="white"/>
</linearGradient>
<linearGradient id="paint76_linear_98_1222" x1="11.1666" y1="11.0133" x2="11.1666" y2="0.783859" gradientUnits="userSpaceOnUse">
<stop stop-color="#83D6DB"/>
<stop offset="1" stop-color="white"/>
</linearGradient>
<linearGradient id="paint77_linear_98_1222" x1="11.2444" y1="0.783858" x2="11.2444" y2="0.783858" gradientUnits="userSpaceOnUse">
<stop stop-color="#83D6DB"/>
<stop offset="1" stop-color="white"/>
</linearGradient>
<linearGradient id="paint78_linear_98_1222" x1="11.3222" y1="0.783858" x2="11.3222" y2="0.783858" gradientUnits="userSpaceOnUse">
<stop stop-color="#83D6DB"/>
<stop offset="1" stop-color="white"/>
</linearGradient>
<linearGradient id="paint79_linear_98_1222" x1="11.4001" y1="0.783858" x2="11.4001" y2="0.783858" gradientUnits="userSpaceOnUse">
<stop stop-color="#83D6DB"/>
<stop offset="1" stop-color="white"/>
</linearGradient>
<linearGradient id="paint80_linear_98_1222" x1="11.4778" y1="11.0133" x2="11.4778" y2="0.783859" gradientUnits="userSpaceOnUse">
<stop stop-color="#83D6DB"/>
<stop offset="1" stop-color="white"/>
</linearGradient>
<linearGradient id="paint81_linear_98_1222" x1="11.5556" y1="11.0133" x2="11.5556" y2="0.783859" gradientUnits="userSpaceOnUse">
<stop stop-color="#83D6DB"/>
<stop offset="1" stop-color="white"/>
</linearGradient>
<linearGradient id="paint82_linear_98_1222" x1="11.6334" y1="0.783858" x2="11.6334" y2="0.783858" gradientUnits="userSpaceOnUse">
<stop stop-color="#83D6DB"/>
<stop offset="1" stop-color="white"/>
</linearGradient>
<linearGradient id="paint83_linear_98_1222" x1="11.7113" y1="0.783858" x2="11.7113" y2="0.783858" gradientUnits="userSpaceOnUse">
<stop stop-color="#83D6DB"/>
<stop offset="1" stop-color="white"/>
</linearGradient>
<linearGradient id="paint84_linear_98_1222" x1="11.7891" y1="0.783858" x2="11.7891" y2="0.783858" gradientUnits="userSpaceOnUse">
<stop stop-color="#83D6DB"/>
<stop offset="1" stop-color="white"/>
</linearGradient>
<linearGradient id="paint85_linear_98_1222" x1="11.8669" y1="11.0133" x2="11.8669" y2="0.783859" gradientUnits="userSpaceOnUse">
<stop stop-color="#83D6DB"/>
<stop offset="1" stop-color="white"/>
</linearGradient>
<linearGradient id="paint86_linear_98_1222" x1="11.9447" y1="0.783858" x2="11.9447" y2="0.783858" gradientUnits="userSpaceOnUse">
<stop stop-color="#83D6DB"/>
<stop offset="1" stop-color="white"/>
</linearGradient>
<linearGradient id="paint87_linear_98_1222" x1="12.0226" y1="0.783858" x2="12.0226" y2="0.783858" gradientUnits="userSpaceOnUse">
<stop stop-color="#83D6DB"/>
<stop offset="1" stop-color="white"/>
</linearGradient>
<linearGradient id="paint88_linear_98_1222" x1="12.1004" y1="0.783858" x2="12.1004" y2="0.783858" gradientUnits="userSpaceOnUse">
<stop stop-color="#83D6DB"/>
<stop offset="1" stop-color="white"/>
</linearGradient>
<linearGradient id="paint89_linear_98_1222" x1="12.1782" y1="0.783858" x2="12.1782" y2="0.783858" gradientUnits="userSpaceOnUse">
<stop stop-color="#83D6DB"/>
<stop offset="1" stop-color="white"/>
</linearGradient>
<linearGradient id="paint90_linear_98_1222" x1="12.256" y1="11.0133" x2="12.256" y2="0.783859" gradientUnits="userSpaceOnUse">
<stop stop-color="#83D6DB"/>
<stop offset="1" stop-color="white"/>
</linearGradient>
<linearGradient id="paint91_linear_98_1222" x1="12.3338" y1="0.783858" x2="12.3338" y2="0.783858" gradientUnits="userSpaceOnUse">
<stop stop-color="#83D6DB"/>
<stop offset="1" stop-color="white"/>
</linearGradient>
<linearGradient id="paint92_linear_98_1222" x1="12.4117" y1="0.783858" x2="12.4117" y2="0.783858" gradientUnits="userSpaceOnUse">
<stop stop-color="#83D6DB"/>
<stop offset="1" stop-color="white"/>
</linearGradient>
<linearGradient id="paint93_linear_98_1222" x1="12.4895" y1="0.783858" x2="12.4895" y2="0.783858" gradientUnits="userSpaceOnUse">
<stop stop-color="#83D6DB"/>
<stop offset="1" stop-color="white"/>
</linearGradient>
<linearGradient id="paint94_linear_98_1222" x1="12.5673" y1="0.783858" x2="12.5673" y2="0.783858" gradientUnits="userSpaceOnUse">
<stop stop-color="#83D6DB"/>
<stop offset="1" stop-color="white"/>
</linearGradient>
<linearGradient id="paint95_linear_98_1222" x1="12.6451" y1="0.783858" x2="12.6451" y2="0.783858" gradientUnits="userSpaceOnUse">
<stop stop-color="#83D6DB"/>
<stop offset="1" stop-color="white"/>
</linearGradient>
<linearGradient id="paint96_linear_98_1222" x1="12.723" y1="0.783858" x2="12.723" y2="0.783858" gradientUnits="userSpaceOnUse">
<stop stop-color="#83D6DB"/>
<stop offset="1" stop-color="white"/>
</linearGradient>
<linearGradient id="paint97_linear_98_1222" x1="12.8007" y1="0.783858" x2="12.8007" y2="0.783858" gradientUnits="userSpaceOnUse">
<stop stop-color="#83D6DB"/>
<stop offset="1" stop-color="white"/>
</linearGradient>
<linearGradient id="paint98_linear_98_1222" x1="12.8785" y1="0.783858" x2="12.8785" y2="0.783858" gradientUnits="userSpaceOnUse">
<stop stop-color="#83D6DB"/>
<stop offset="1" stop-color="white"/>
</linearGradient>
<linearGradient id="paint99_linear_98_1222" x1="12.9563" y1="11.0133" x2="12.9563" y2="0.783859" gradientUnits="userSpaceOnUse">
<stop stop-color="#83D6DB"/>
<stop offset="1" stop-color="white"/>
</linearGradient>
<linearGradient id="paint100_linear_98_1222" x1="13.0342" y1="0.783858" x2="13.0342" y2="0.783858" gradientUnits="userSpaceOnUse">
<stop stop-color="#83D6DB"/>
<stop offset="1" stop-color="white"/>
</linearGradient>
<linearGradient id="paint101_linear_98_1222" x1="13.112" y1="0.783858" x2="13.112" y2="0.783858" gradientUnits="userSpaceOnUse">
<stop stop-color="#83D6DB"/>
<stop offset="1" stop-color="white"/>
</linearGradient>
<linearGradient id="paint102_linear_98_1222" x1="13.1898" y1="0.783858" x2="13.1898" y2="0.783858" gradientUnits="userSpaceOnUse">
<stop stop-color="#83D6DB"/>
<stop offset="1" stop-color="white"/>
</linearGradient>
<linearGradient id="paint103_linear_98_1222" x1="5.24771" y1="10.016" x2="12.5233" y2="10.016" gradientUnits="userSpaceOnUse">
<stop stop-color="#423CF6"/>
<stop offset="1" stop-color="#456BF6"/>
</linearGradient>
<linearGradient id="paint104_linear_98_1222" x1="4.61466" y1="2.12463" x2="4.61466" y2="11.0618" gradientUnits="userSpaceOnUse">
<stop stop-color="#00F763"/>
<stop offset="0.53" stop-color="#00D126"/>
</linearGradient>
<radialGradient id="paint105_radial_98_1222" cx="0" cy="0" r="1" gradientUnits="userSpaceOnUse" gradientTransform="translate(5.71043 9.5456) rotate(-144.35) scale(2.38528 5.89164)">
<stop stop-color="#07F4FF"/>
<stop offset="1" stop-color="#07F4FF" stop-opacity="0"/>
</radialGradient>
<linearGradient id="paint106_linear_98_1222" x1="3.50882" y1="5.32278" x2="5.72036" y2="5.32278" gradientUnits="userSpaceOnUse">
<stop stop-color="white"/>
<stop offset="1" stop-color="#F3F7FF"/>
</linearGradient>
</defs>
</svg>
