<svg width="37" height="12" viewBox="0 0 37 12" fill="none" xmlns="http://www.w3.org/2000/svg">
<g clip-path="url(#clip0_110_111)">
<path fill-rule="evenodd" clip-rule="evenodd" d="M5.99913 0.5C2.96132 0.5 0.5 2.43035 0.5 4.81095C0.5 6.3408 1.52012 7.68408 3.05156 8.45025L2.53272 10.3706C2.51267 10.4303 2.53022 10.4925 2.57283 10.5348C2.6029 10.5647 2.64301 10.5796 2.68562 10.5796C2.7182 10.5796 2.75078 10.5672 2.78086 10.5448L5.00909 9.05224C5.33242 9.09702 5.66327 9.12438 5.99913 9.12438C9.03443 9.12438 11.4983 7.19403 11.4983 4.81343C11.4983 2.43284 9.03443 0.5 5.99913 0.5Z" fill="black"/>
<path d="M16.1301 8.39036V11.1739H14.1325V0.910266H15.5411L15.7868 1.56201C16.2103 1.14161 16.8545 0.693848 17.8947 0.693848C19.8522 0.693848 20.7821 2.14658 20.7671 4.49484C20.7671 6.95255 19.3309 8.52718 17.2781 8.52718C16.8821 8.52718 16.5813 8.49982 16.1301 8.39036ZM16.1301 2.56698V7.00728C16.2404 7.01972 16.5136 7.04708 16.7743 7.04708C18.198 7.04708 18.7444 6.05703 18.7444 4.49484C18.7444 3.1242 18.3759 2.29584 17.2405 2.29584C16.872 2.29584 16.461 2.40529 16.1326 2.56698H16.1301Z" fill="black"/>
<path d="M25.1183 3.80081H26.2537V3.55703C26.2537 2.7436 25.7875 2.363 24.9804 2.363C24.3638 2.363 23.5718 2.53962 22.9276 2.85305L22.3812 1.52221C23.0931 1.03216 24.1859 0.693848 25.1584 0.693848C27.0733 0.693848 28.1135 1.69882 28.1135 3.61425V8.32569H26.7048L26.4993 7.70131C25.6922 8.28589 24.9528 8.52967 24.2836 8.52967C22.8199 8.52967 21.9977 7.66151 21.9977 6.19385C21.9977 4.63166 23.0931 3.8033 25.1158 3.8033L25.1183 3.80081ZM26.2537 6.4227V5.06449H25.3363C24.3112 5.06449 23.7898 5.43017 23.7898 6.164C23.7898 6.72121 24.0781 6.99235 24.6646 6.99235C25.211 6.99235 25.9103 6.72121 26.2512 6.4227H26.2537Z" fill="black"/>
<path d="M34.159 7.56228C33.4622 9.40805 32.6276 10.7538 31.4094 11.5001L30.1788 10.3732C30.8906 9.76128 31.3969 9.16427 31.833 8.36327L29.1787 1.18168L31.1613 0.651829L32.8582 6.4777L34.54 0.626953L36.4975 1.16924L34.159 7.56476V7.56228Z" fill="black"/>
</g>
<defs>
<clipPath id="clip0_110_111">
<rect width="36" height="11" fill="white" transform="translate(0.5 0.5)"/>
</clipPath>
</defs>
</svg>