<svg width="13" height="14" viewBox="0 0 13 14" fill="none" xmlns="http://www.w3.org/2000/svg">
<path d="M3.83093 5.81537L2.71618 6.93013C2.25903 7.38728 2.0022 8.00732 2.0022 8.65384C2.0022 9.30036 2.25903 9.9204 2.71618 10.3776C3.17334 10.8347 3.79338 11.0916 4.4399 11.0916C5.08642 11.0916 5.70646 10.8347 6.16362 10.3776L7.64887 8.8915C7.92455 8.61578 8.13006 8.27796 8.24816 7.90638C8.36627 7.53481 8.39351 7.14032 8.3276 6.75603C8.2617 6.37175 8.10457 6.00888 7.86941 5.69789C7.63425 5.3869 7.32792 5.13686 6.97612 4.96875L6.5 5.44487C6.45165 5.49329 6.40961 5.54761 6.37487 5.60656C6.64668 5.6847 6.89338 5.83242 7.0906 6.03512C7.28782 6.23782 7.42872 6.48849 7.49937 6.76233C7.57003 7.03617 7.56799 7.32371 7.49347 7.59653C7.41894 7.86934 7.2745 8.11799 7.07443 8.31787L5.59 9.80312C5.28508 10.108 4.87153 10.2793 4.44031 10.2793C4.00909 10.2793 3.59554 10.108 3.29062 9.80312C2.98571 9.49821 2.81441 9.08465 2.81441 8.65344C2.81441 8.22222 2.98571 7.80867 3.29062 7.50375L3.93493 6.86025C3.84377 6.51964 3.80865 6.16727 3.83093 5.81537Z" fill="#CF9B4C"/>
<path d="M5.35113 4.29592C5.07546 4.57163 4.86994 4.90946 4.75184 5.28104C4.63374 5.65261 4.6065 6.0471 4.6724 6.43138C4.73831 6.81567 4.89544 7.17853 5.1306 7.48953C5.36576 7.80052 5.67209 8.05056 6.02388 8.21867L6.65357 7.58817C6.37809 7.51428 6.12691 7.36918 5.92527 7.16746C5.72364 6.96574 5.57864 6.7145 5.50487 6.43899C5.43109 6.16347 5.43113 5.8734 5.50498 5.59791C5.57882 5.32241 5.72388 5.07121 5.92557 4.86954L7.41001 3.38429C7.71492 3.07938 8.12848 2.90808 8.5597 2.90808C8.99091 2.90808 9.40447 3.07938 9.70938 3.38429C10.0143 3.68921 10.1856 4.10276 10.1856 4.53398C10.1856 4.9652 10.0143 5.37875 9.70938 5.68367L9.06507 6.32717C9.15607 6.66842 9.19101 7.02185 9.16907 7.37285L10.2838 6.2581C10.741 5.80095 10.9978 5.18091 10.9978 4.53439C10.9978 3.88787 10.741 3.26783 10.2838 2.81067C9.82666 2.35351 9.20662 2.09668 8.5601 2.09668C7.91358 2.09668 7.29354 2.35351 6.83638 2.81067L5.35113 4.29592Z" fill="#CF9B4C"/>
</svg>