<svg width="13" height="14" viewBox="0 0 13 14" fill="none" xmlns="http://www.w3.org/2000/svg">
<g clip-path="url(#clip0_258_5)">
<path d="M13 10.6078C13 12.2056 11.7056 13.5 10.1077 13.5H2.89234C1.29437 13.5 0 12.2056 0 10.6078V3.39216C0 1.7944 1.29437 0.5 2.89234 0.5H10.1077C11.7056 0.5 13 1.7944 13 3.39216V10.6078Z" fill="#FAE100"/>
<path d="M6.49999 2.7295C3.91717 2.7295 1.82455 4.37438 1.82455 6.40508C1.82455 7.72599 2.71166 8.88491 4.04306 9.53285C3.94531 9.89511 3.6891 10.8479 3.63727 11.0511C3.57359 11.3044 3.73057 11.3 3.83276 11.2322C3.91273 11.1792 5.1138 10.3663 5.63214 10.0159C5.91353 10.0571 6.2038 10.0792 6.49999 10.0792C9.08281 10.0792 11.1754 8.4343 11.1754 6.4036C11.1754 4.37291 9.08281 2.72803 6.49999 2.72803" fill="#371C1D"/>
<path d="M3.23741 5.72751H3.71873C3.71873 5.72751 3.72169 7.04253 3.71873 7.34883C3.71873 7.57267 4.2193 7.57561 4.2193 7.35178V5.74518C4.2193 5.74518 4.38221 5.74518 4.70062 5.74518C4.99977 5.74518 4.99977 5.2769 4.70062 5.2769C4.36295 5.2769 3.23741 5.26807 3.23741 5.26807C2.95455 5.26807 2.95603 5.72751 3.23741 5.72751Z" fill="#FAE100"/>
<mask id="mask0_258_5" style="mask-type:luminance" maskUnits="userSpaceOnUse" x="3" y="5" width="2" height="3">
<path d="M3.23741 5.72751H3.71873C3.71873 5.72751 3.72169 7.04253 3.71873 7.34883C3.71873 7.57267 4.2193 7.57561 4.2193 7.35178V5.74518C4.2193 5.74518 4.38221 5.74518 4.70062 5.74518C4.99977 5.74518 4.99977 5.2769 4.70062 5.2769C4.36295 5.2769 3.23741 5.26807 3.23741 5.26807C2.95455 5.26807 2.95603 5.72751 3.23741 5.72751Z" fill="white"/>
</mask>
<g mask="url(#mask0_258_5)">
<path d="M4.99979 5.26807H2.95456V7.57414H4.99979V5.26807Z" fill="#FAE100"/>
</g>
<path d="M5.54181 5.81288L5.80987 6.64783H5.25154L5.54181 5.81288ZM5.24118 5.42117C5.1227 5.68034 4.6947 6.90554 4.55252 7.22951C4.45033 7.46365 4.89315 7.65508 4.99533 7.42094L5.0916 7.08667H5.97278C5.97278 7.08667 5.94316 7.09992 6.06015 7.40769C6.15494 7.65656 6.61256 7.48426 6.51778 7.2354C6.38301 6.8805 5.91502 5.6023 5.82912 5.42117C5.78914 5.33723 5.64844 5.27686 5.51219 5.27686C5.39964 5.27686 5.28857 5.31809 5.24266 5.42117" fill="#FAE100"/>
<mask id="mask1_258_5" style="mask-type:luminance" maskUnits="userSpaceOnUse" x="4" y="5" width="3" height="3">
<path d="M5.54181 5.81288L5.80987 6.64783H5.25154L5.54181 5.81288ZM5.24118 5.42117C5.1227 5.68034 4.6947 6.90554 4.55252 7.22951C4.45033 7.46365 4.89315 7.65508 4.99533 7.42094L5.0916 7.08667H5.97278C5.97278 7.08667 5.94316 7.09992 6.06015 7.40769C6.15494 7.65656 6.61256 7.48426 6.51778 7.2354C6.38301 6.8805 5.91502 5.6023 5.82912 5.42117C5.78914 5.33723 5.64844 5.27686 5.51219 5.27686C5.39964 5.27686 5.28857 5.31809 5.24266 5.42117" fill="white"/>
</mask>
<g mask="url(#mask1_258_5)">
<path d="M6.61109 5.27832H4.45035V7.65655H6.61109V5.27832Z" fill="#FAE100"/>
</g>
<path d="M6.68512 5.49774C6.68512 5.91448 6.68808 7.25601 6.68808 7.25601C6.68808 7.25601 6.64958 7.52254 6.87913 7.52254C7.10868 7.52254 7.61962 7.5196 7.84472 7.5196C8.06983 7.5196 8.06983 7.04101 7.84472 7.04101C7.61962 7.04101 7.20642 7.03806 7.20642 7.03806C7.20642 7.03806 7.2079 5.79667 7.20642 5.49626C7.20642 5.35048 7.0761 5.27832 6.94577 5.27832C6.81545 5.27832 6.68512 5.35195 6.68512 5.49774Z" fill="#FAE100"/>
<mask id="mask2_258_5" style="mask-type:luminance" maskUnits="userSpaceOnUse" x="6" y="5" width="3" height="3">
<path d="M6.68512 5.49774C6.68512 5.91448 6.68808 7.25601 6.68808 7.25601C6.68808 7.25601 6.64958 7.52254 6.87913 7.52254C7.10868 7.52254 7.61962 7.5196 7.84472 7.5196C8.06983 7.5196 8.06983 7.04101 7.84472 7.04101C7.61962 7.04101 7.20642 7.03806 7.20642 7.03806C7.20642 7.03806 7.2079 5.79667 7.20642 5.49626C7.20642 5.35048 7.0761 5.27832 6.94577 5.27832C6.81545 5.27832 6.68512 5.35195 6.68512 5.49774Z" fill="white"/>
</mask>
<g mask="url(#mask2_258_5)">
<path d="M8.0713 5.27832H6.64957V7.52254H8.0713V5.27832Z" fill="#FAE100"/>
</g>
<path d="M8.13202 5.43146C8.13647 5.61406 8.1261 7.26483 8.1261 7.38706C8.1261 7.57997 8.62074 7.57997 8.62074 7.38706C8.62074 7.16322 8.62074 6.73765 8.62074 6.73765L8.76588 6.62131L9.39974 7.48278C9.52858 7.65065 9.93141 7.3473 9.80404 7.17942L9.1302 6.29734C9.1302 6.29734 9.58782 5.8055 9.7685 5.62732C9.87365 5.52276 9.54783 5.19732 9.44269 5.30187C9.3405 5.40201 8.62371 6.11474 8.62371 6.11474C8.62371 6.11474 8.62963 5.66708 8.62371 5.41968C8.62074 5.32544 8.50523 5.27979 8.38675 5.27979C8.25939 5.27979 8.13054 5.33133 8.13202 5.43293" fill="#FAE100"/>
<mask id="mask3_258_5" style="mask-type:luminance" maskUnits="userSpaceOnUse" x="8" y="5" width="2" height="3">
<path d="M8.13202 5.43146C8.13647 5.61406 8.1261 7.26483 8.1261 7.38706C8.1261 7.57997 8.62074 7.57997 8.62074 7.38706C8.62074 7.16322 8.62074 6.73765 8.62074 6.73765L8.76588 6.62131L9.39974 7.48278C9.52858 7.65065 9.93141 7.3473 9.80404 7.17942L9.1302 6.29734C9.1302 6.29734 9.58782 5.8055 9.7685 5.62732C9.87365 5.52276 9.54783 5.19732 9.44269 5.30187C9.3405 5.40201 8.62371 6.11474 8.62371 6.11474C8.62371 6.11474 8.62963 5.66708 8.62371 5.41968C8.62074 5.32544 8.50523 5.27979 8.38675 5.27979C8.25939 5.27979 8.13054 5.33133 8.13202 5.43293" fill="white"/>
</mask>
<g mask="url(#mask3_258_5)">
<path d="M9.93141 5.1958H8.1261V7.6506H9.93141V5.1958Z" fill="#FAE100"/>
</g>
</g>
<defs>
<clipPath id="clip0_258_5">
<rect width="13" height="13" fill="white" transform="translate(0 0.5)"/>
</clipPath>
</defs>
</svg>